%TF.GenerationSoftware,KiCad,Pcbnew,7.0.1*%
%TF.CreationDate,2023-05-06T21:47:35-07:00*%
%TF.ProjectId,MAGNETORQUERS,4d41474e-4554-44f5-9251-554552532e6b,rev?*%
%TF.SameCoordinates,Original*%
%TF.FileFunction,Legend,Top*%
%TF.FilePolarity,Positive*%
%FSLAX46Y46*%
G04 Gerber Fmt 4.6, Leading zero omitted, Abs format (unit mm)*
G04 Created by KiCad (PCBNEW 7.0.1) date 2023-05-06 21:47:35*
%MOMM*%
%LPD*%
G01*
G04 APERTURE LIST*
%ADD10C,0.120000*%
%ADD11C,0.150000*%
%ADD12C,0.127000*%
%ADD13C,0.200000*%
G04 APERTURE END LIST*
D10*
X141740476Y-95147333D02*
X142350000Y-95147333D01*
X142045238Y-95452095D02*
X142045238Y-94842571D01*
D11*
X137088095Y-81127619D02*
X137088095Y-80127619D01*
X137088095Y-80127619D02*
X137326190Y-80127619D01*
X137326190Y-80127619D02*
X137469047Y-80175238D01*
X137469047Y-80175238D02*
X137564285Y-80270476D01*
X137564285Y-80270476D02*
X137611904Y-80365714D01*
X137611904Y-80365714D02*
X137659523Y-80556190D01*
X137659523Y-80556190D02*
X137659523Y-80699047D01*
X137659523Y-80699047D02*
X137611904Y-80889523D01*
X137611904Y-80889523D02*
X137564285Y-80984761D01*
X137564285Y-80984761D02*
X137469047Y-81080000D01*
X137469047Y-81080000D02*
X137326190Y-81127619D01*
X137326190Y-81127619D02*
X137088095Y-81127619D01*
X138659523Y-81127619D02*
X138326190Y-80651428D01*
X138088095Y-81127619D02*
X138088095Y-80127619D01*
X138088095Y-80127619D02*
X138469047Y-80127619D01*
X138469047Y-80127619D02*
X138564285Y-80175238D01*
X138564285Y-80175238D02*
X138611904Y-80222857D01*
X138611904Y-80222857D02*
X138659523Y-80318095D01*
X138659523Y-80318095D02*
X138659523Y-80460952D01*
X138659523Y-80460952D02*
X138611904Y-80556190D01*
X138611904Y-80556190D02*
X138564285Y-80603809D01*
X138564285Y-80603809D02*
X138469047Y-80651428D01*
X138469047Y-80651428D02*
X138088095Y-80651428D01*
X138945238Y-80127619D02*
X139278571Y-81127619D01*
X139278571Y-81127619D02*
X139611904Y-80127619D01*
X140088095Y-80556190D02*
X139992857Y-80508571D01*
X139992857Y-80508571D02*
X139945238Y-80460952D01*
X139945238Y-80460952D02*
X139897619Y-80365714D01*
X139897619Y-80365714D02*
X139897619Y-80318095D01*
X139897619Y-80318095D02*
X139945238Y-80222857D01*
X139945238Y-80222857D02*
X139992857Y-80175238D01*
X139992857Y-80175238D02*
X140088095Y-80127619D01*
X140088095Y-80127619D02*
X140278571Y-80127619D01*
X140278571Y-80127619D02*
X140373809Y-80175238D01*
X140373809Y-80175238D02*
X140421428Y-80222857D01*
X140421428Y-80222857D02*
X140469047Y-80318095D01*
X140469047Y-80318095D02*
X140469047Y-80365714D01*
X140469047Y-80365714D02*
X140421428Y-80460952D01*
X140421428Y-80460952D02*
X140373809Y-80508571D01*
X140373809Y-80508571D02*
X140278571Y-80556190D01*
X140278571Y-80556190D02*
X140088095Y-80556190D01*
X140088095Y-80556190D02*
X139992857Y-80603809D01*
X139992857Y-80603809D02*
X139945238Y-80651428D01*
X139945238Y-80651428D02*
X139897619Y-80746666D01*
X139897619Y-80746666D02*
X139897619Y-80937142D01*
X139897619Y-80937142D02*
X139945238Y-81032380D01*
X139945238Y-81032380D02*
X139992857Y-81080000D01*
X139992857Y-81080000D02*
X140088095Y-81127619D01*
X140088095Y-81127619D02*
X140278571Y-81127619D01*
X140278571Y-81127619D02*
X140373809Y-81080000D01*
X140373809Y-81080000D02*
X140421428Y-81032380D01*
X140421428Y-81032380D02*
X140469047Y-80937142D01*
X140469047Y-80937142D02*
X140469047Y-80746666D01*
X140469047Y-80746666D02*
X140421428Y-80651428D01*
X140421428Y-80651428D02*
X140373809Y-80603809D01*
X140373809Y-80603809D02*
X140278571Y-80556190D01*
X141040476Y-80556190D02*
X140945238Y-80508571D01*
X140945238Y-80508571D02*
X140897619Y-80460952D01*
X140897619Y-80460952D02*
X140850000Y-80365714D01*
X140850000Y-80365714D02*
X140850000Y-80318095D01*
X140850000Y-80318095D02*
X140897619Y-80222857D01*
X140897619Y-80222857D02*
X140945238Y-80175238D01*
X140945238Y-80175238D02*
X141040476Y-80127619D01*
X141040476Y-80127619D02*
X141230952Y-80127619D01*
X141230952Y-80127619D02*
X141326190Y-80175238D01*
X141326190Y-80175238D02*
X141373809Y-80222857D01*
X141373809Y-80222857D02*
X141421428Y-80318095D01*
X141421428Y-80318095D02*
X141421428Y-80365714D01*
X141421428Y-80365714D02*
X141373809Y-80460952D01*
X141373809Y-80460952D02*
X141326190Y-80508571D01*
X141326190Y-80508571D02*
X141230952Y-80556190D01*
X141230952Y-80556190D02*
X141040476Y-80556190D01*
X141040476Y-80556190D02*
X140945238Y-80603809D01*
X140945238Y-80603809D02*
X140897619Y-80651428D01*
X140897619Y-80651428D02*
X140850000Y-80746666D01*
X140850000Y-80746666D02*
X140850000Y-80937142D01*
X140850000Y-80937142D02*
X140897619Y-81032380D01*
X140897619Y-81032380D02*
X140945238Y-81080000D01*
X140945238Y-81080000D02*
X141040476Y-81127619D01*
X141040476Y-81127619D02*
X141230952Y-81127619D01*
X141230952Y-81127619D02*
X141326190Y-81080000D01*
X141326190Y-81080000D02*
X141373809Y-81032380D01*
X141373809Y-81032380D02*
X141421428Y-80937142D01*
X141421428Y-80937142D02*
X141421428Y-80746666D01*
X141421428Y-80746666D02*
X141373809Y-80651428D01*
X141373809Y-80651428D02*
X141326190Y-80603809D01*
X141326190Y-80603809D02*
X141230952Y-80556190D01*
X141754762Y-80127619D02*
X142421428Y-80127619D01*
X142421428Y-80127619D02*
X141992857Y-81127619D01*
X143230952Y-80127619D02*
X143040476Y-80127619D01*
X143040476Y-80127619D02*
X142945238Y-80175238D01*
X142945238Y-80175238D02*
X142897619Y-80222857D01*
X142897619Y-80222857D02*
X142802381Y-80365714D01*
X142802381Y-80365714D02*
X142754762Y-80556190D01*
X142754762Y-80556190D02*
X142754762Y-80937142D01*
X142754762Y-80937142D02*
X142802381Y-81032380D01*
X142802381Y-81032380D02*
X142850000Y-81080000D01*
X142850000Y-81080000D02*
X142945238Y-81127619D01*
X142945238Y-81127619D02*
X143135714Y-81127619D01*
X143135714Y-81127619D02*
X143230952Y-81080000D01*
X143230952Y-81080000D02*
X143278571Y-81032380D01*
X143278571Y-81032380D02*
X143326190Y-80937142D01*
X143326190Y-80937142D02*
X143326190Y-80699047D01*
X143326190Y-80699047D02*
X143278571Y-80603809D01*
X143278571Y-80603809D02*
X143230952Y-80556190D01*
X143230952Y-80556190D02*
X143135714Y-80508571D01*
X143135714Y-80508571D02*
X142945238Y-80508571D01*
X142945238Y-80508571D02*
X142850000Y-80556190D01*
X142850000Y-80556190D02*
X142802381Y-80603809D01*
X142802381Y-80603809D02*
X142754762Y-80699047D01*
X143754762Y-81127619D02*
X143754762Y-80127619D01*
X143754762Y-80127619D02*
X144135714Y-80127619D01*
X144135714Y-80127619D02*
X144230952Y-80175238D01*
X144230952Y-80175238D02*
X144278571Y-80222857D01*
X144278571Y-80222857D02*
X144326190Y-80318095D01*
X144326190Y-80318095D02*
X144326190Y-80460952D01*
X144326190Y-80460952D02*
X144278571Y-80556190D01*
X144278571Y-80556190D02*
X144230952Y-80603809D01*
X144230952Y-80603809D02*
X144135714Y-80651428D01*
X144135714Y-80651428D02*
X143754762Y-80651428D01*
X144659524Y-80127619D02*
X144897619Y-81127619D01*
X144897619Y-81127619D02*
X145088095Y-80413333D01*
X145088095Y-80413333D02*
X145278571Y-81127619D01*
X145278571Y-81127619D02*
X145516667Y-80127619D01*
X145897619Y-81127619D02*
X145897619Y-80127619D01*
X145897619Y-80127619D02*
X146278571Y-80127619D01*
X146278571Y-80127619D02*
X146373809Y-80175238D01*
X146373809Y-80175238D02*
X146421428Y-80222857D01*
X146421428Y-80222857D02*
X146469047Y-80318095D01*
X146469047Y-80318095D02*
X146469047Y-80460952D01*
X146469047Y-80460952D02*
X146421428Y-80556190D01*
X146421428Y-80556190D02*
X146373809Y-80603809D01*
X146373809Y-80603809D02*
X146278571Y-80651428D01*
X146278571Y-80651428D02*
X145897619Y-80651428D01*
X147469047Y-81127619D02*
X147135714Y-80651428D01*
X146897619Y-81127619D02*
X146897619Y-80127619D01*
X146897619Y-80127619D02*
X147278571Y-80127619D01*
X147278571Y-80127619D02*
X147373809Y-80175238D01*
X147373809Y-80175238D02*
X147421428Y-80222857D01*
X147421428Y-80222857D02*
X147469047Y-80318095D01*
X147469047Y-80318095D02*
X147469047Y-80460952D01*
X147469047Y-80460952D02*
X147421428Y-80556190D01*
X147421428Y-80556190D02*
X147373809Y-80603809D01*
X147373809Y-80603809D02*
X147278571Y-80651428D01*
X147278571Y-80651428D02*
X146897619Y-80651428D01*
D10*
X124990476Y-89702095D02*
X124990476Y-88902095D01*
X124990476Y-88902095D02*
X125447619Y-89702095D01*
X125447619Y-89702095D02*
X125447619Y-88902095D01*
X126095237Y-89283047D02*
X125828571Y-89283047D01*
X125828571Y-89702095D02*
X125828571Y-88902095D01*
X125828571Y-88902095D02*
X126209523Y-88902095D01*
X126476189Y-89473523D02*
X126857142Y-89473523D01*
X126399999Y-89702095D02*
X126666666Y-88902095D01*
X126666666Y-88902095D02*
X126933332Y-89702095D01*
X127199999Y-88902095D02*
X127199999Y-89549714D01*
X127199999Y-89549714D02*
X127238094Y-89625904D01*
X127238094Y-89625904D02*
X127276189Y-89664000D01*
X127276189Y-89664000D02*
X127352380Y-89702095D01*
X127352380Y-89702095D02*
X127504761Y-89702095D01*
X127504761Y-89702095D02*
X127580951Y-89664000D01*
X127580951Y-89664000D02*
X127619046Y-89625904D01*
X127619046Y-89625904D02*
X127657142Y-89549714D01*
X127657142Y-89549714D02*
X127657142Y-88902095D01*
X128419046Y-89702095D02*
X128038094Y-89702095D01*
X128038094Y-89702095D02*
X128038094Y-88902095D01*
X128571427Y-88902095D02*
X129028570Y-88902095D01*
X128799998Y-89702095D02*
X128799998Y-88902095D01*
X124890476Y-87302095D02*
X124890476Y-86502095D01*
X124890476Y-86502095D02*
X125347619Y-87302095D01*
X125347619Y-87302095D02*
X125347619Y-86502095D01*
X125690475Y-87264000D02*
X125804761Y-87302095D01*
X125804761Y-87302095D02*
X125995237Y-87302095D01*
X125995237Y-87302095D02*
X126071428Y-87264000D01*
X126071428Y-87264000D02*
X126109523Y-87225904D01*
X126109523Y-87225904D02*
X126147618Y-87149714D01*
X126147618Y-87149714D02*
X126147618Y-87073523D01*
X126147618Y-87073523D02*
X126109523Y-86997333D01*
X126109523Y-86997333D02*
X126071428Y-86959238D01*
X126071428Y-86959238D02*
X125995237Y-86921142D01*
X125995237Y-86921142D02*
X125842856Y-86883047D01*
X125842856Y-86883047D02*
X125766666Y-86844952D01*
X125766666Y-86844952D02*
X125728571Y-86806857D01*
X125728571Y-86806857D02*
X125690475Y-86730666D01*
X125690475Y-86730666D02*
X125690475Y-86654476D01*
X125690475Y-86654476D02*
X125728571Y-86578285D01*
X125728571Y-86578285D02*
X125766666Y-86540190D01*
X125766666Y-86540190D02*
X125842856Y-86502095D01*
X125842856Y-86502095D02*
X126033333Y-86502095D01*
X126033333Y-86502095D02*
X126147618Y-86540190D01*
X126871428Y-87302095D02*
X126490476Y-87302095D01*
X126490476Y-87302095D02*
X126490476Y-86502095D01*
X127138095Y-86883047D02*
X127404761Y-86883047D01*
X127519047Y-87302095D02*
X127138095Y-87302095D01*
X127138095Y-87302095D02*
X127138095Y-86502095D01*
X127138095Y-86502095D02*
X127519047Y-86502095D01*
X127861905Y-86883047D02*
X128128571Y-86883047D01*
X128242857Y-87302095D02*
X127861905Y-87302095D01*
X127861905Y-87302095D02*
X127861905Y-86502095D01*
X127861905Y-86502095D02*
X128242857Y-86502095D01*
X128585715Y-87302095D02*
X128585715Y-86502095D01*
X128585715Y-86502095D02*
X128890477Y-86502095D01*
X128890477Y-86502095D02*
X128966667Y-86540190D01*
X128966667Y-86540190D02*
X129004762Y-86578285D01*
X129004762Y-86578285D02*
X129042858Y-86654476D01*
X129042858Y-86654476D02*
X129042858Y-86768761D01*
X129042858Y-86768761D02*
X129004762Y-86844952D01*
X129004762Y-86844952D02*
X128966667Y-86883047D01*
X128966667Y-86883047D02*
X128890477Y-86921142D01*
X128890477Y-86921142D02*
X128585715Y-86921142D01*
X151190476Y-80797333D02*
X151800000Y-80797333D01*
X151495238Y-81102095D02*
X151495238Y-80492571D01*
X127052380Y-92173523D02*
X127433333Y-92173523D01*
X126976190Y-92402095D02*
X127242857Y-91602095D01*
X127242857Y-91602095D02*
X127509523Y-92402095D01*
X127776190Y-92402095D02*
X127776190Y-91602095D01*
X127776190Y-91602095D02*
X127966666Y-91602095D01*
X127966666Y-91602095D02*
X128080952Y-91640190D01*
X128080952Y-91640190D02*
X128157142Y-91716380D01*
X128157142Y-91716380D02*
X128195237Y-91792571D01*
X128195237Y-91792571D02*
X128233333Y-91944952D01*
X128233333Y-91944952D02*
X128233333Y-92059238D01*
X128233333Y-92059238D02*
X128195237Y-92211619D01*
X128195237Y-92211619D02*
X128157142Y-92287809D01*
X128157142Y-92287809D02*
X128080952Y-92364000D01*
X128080952Y-92364000D02*
X127966666Y-92402095D01*
X127966666Y-92402095D02*
X127776190Y-92402095D01*
X129033333Y-92325904D02*
X128995237Y-92364000D01*
X128995237Y-92364000D02*
X128880952Y-92402095D01*
X128880952Y-92402095D02*
X128804761Y-92402095D01*
X128804761Y-92402095D02*
X128690475Y-92364000D01*
X128690475Y-92364000D02*
X128614285Y-92287809D01*
X128614285Y-92287809D02*
X128576190Y-92211619D01*
X128576190Y-92211619D02*
X128538094Y-92059238D01*
X128538094Y-92059238D02*
X128538094Y-91944952D01*
X128538094Y-91944952D02*
X128576190Y-91792571D01*
X128576190Y-91792571D02*
X128614285Y-91716380D01*
X128614285Y-91716380D02*
X128690475Y-91640190D01*
X128690475Y-91640190D02*
X128804761Y-91602095D01*
X128804761Y-91602095D02*
X128880952Y-91602095D01*
X128880952Y-91602095D02*
X128995237Y-91640190D01*
X128995237Y-91640190D02*
X129033333Y-91678285D01*
X125040476Y-81783047D02*
X125307142Y-81783047D01*
X125421428Y-82202095D02*
X125040476Y-82202095D01*
X125040476Y-82202095D02*
X125040476Y-81402095D01*
X125040476Y-81402095D02*
X125421428Y-81402095D01*
X125764286Y-82202095D02*
X125764286Y-81402095D01*
X125764286Y-81402095D02*
X126221429Y-82202095D01*
X126221429Y-82202095D02*
X126221429Y-81402095D01*
X127173809Y-81364000D02*
X126488095Y-82392571D01*
X127440476Y-82202095D02*
X127440476Y-81402095D01*
X127821428Y-82202095D02*
X127821428Y-81402095D01*
X127821428Y-81402095D02*
X128278571Y-82202095D01*
X128278571Y-82202095D02*
X128278571Y-81402095D01*
X129078570Y-82202095D02*
X128621427Y-82202095D01*
X128849999Y-82202095D02*
X128849999Y-81402095D01*
X128849999Y-81402095D02*
X128773808Y-81516380D01*
X128773808Y-81516380D02*
X128697618Y-81592571D01*
X128697618Y-81592571D02*
X128621427Y-81630666D01*
X139140476Y-95147333D02*
X139750000Y-95147333D01*
X127176190Y-78702095D02*
X127442857Y-79502095D01*
X127442857Y-79502095D02*
X127709523Y-78702095D01*
X128319047Y-79464000D02*
X128242856Y-79502095D01*
X128242856Y-79502095D02*
X128090475Y-79502095D01*
X128090475Y-79502095D02*
X128014285Y-79464000D01*
X128014285Y-79464000D02*
X127976190Y-79425904D01*
X127976190Y-79425904D02*
X127938094Y-79349714D01*
X127938094Y-79349714D02*
X127938094Y-79121142D01*
X127938094Y-79121142D02*
X127976190Y-79044952D01*
X127976190Y-79044952D02*
X128014285Y-79006857D01*
X128014285Y-79006857D02*
X128090475Y-78968761D01*
X128090475Y-78968761D02*
X128242856Y-78968761D01*
X128242856Y-78968761D02*
X128319047Y-79006857D01*
X129004761Y-79464000D02*
X128928570Y-79502095D01*
X128928570Y-79502095D02*
X128776189Y-79502095D01*
X128776189Y-79502095D02*
X128699999Y-79464000D01*
X128699999Y-79464000D02*
X128661904Y-79425904D01*
X128661904Y-79425904D02*
X128623808Y-79349714D01*
X128623808Y-79349714D02*
X128623808Y-79121142D01*
X128623808Y-79121142D02*
X128661904Y-79044952D01*
X128661904Y-79044952D02*
X128699999Y-79006857D01*
X128699999Y-79006857D02*
X128776189Y-78968761D01*
X128776189Y-78968761D02*
X128928570Y-78968761D01*
X128928570Y-78968761D02*
X129004761Y-79006857D01*
X153276190Y-88002095D02*
X153542857Y-88802095D01*
X153542857Y-88802095D02*
X153809523Y-88002095D01*
X154076190Y-88802095D02*
X154076190Y-88002095D01*
X154076190Y-88002095D02*
X154342856Y-88573523D01*
X154342856Y-88573523D02*
X154609523Y-88002095D01*
X154609523Y-88002095D02*
X154609523Y-88802095D01*
X153607142Y-82683047D02*
X153721428Y-82721142D01*
X153721428Y-82721142D02*
X153759523Y-82759238D01*
X153759523Y-82759238D02*
X153797619Y-82835428D01*
X153797619Y-82835428D02*
X153797619Y-82949714D01*
X153797619Y-82949714D02*
X153759523Y-83025904D01*
X153759523Y-83025904D02*
X153721428Y-83064000D01*
X153721428Y-83064000D02*
X153645238Y-83102095D01*
X153645238Y-83102095D02*
X153340476Y-83102095D01*
X153340476Y-83102095D02*
X153340476Y-82302095D01*
X153340476Y-82302095D02*
X153607142Y-82302095D01*
X153607142Y-82302095D02*
X153683333Y-82340190D01*
X153683333Y-82340190D02*
X153721428Y-82378285D01*
X153721428Y-82378285D02*
X153759523Y-82454476D01*
X153759523Y-82454476D02*
X153759523Y-82530666D01*
X153759523Y-82530666D02*
X153721428Y-82606857D01*
X153721428Y-82606857D02*
X153683333Y-82644952D01*
X153683333Y-82644952D02*
X153607142Y-82683047D01*
X153607142Y-82683047D02*
X153340476Y-82683047D01*
X154140476Y-82302095D02*
X154140476Y-82949714D01*
X154140476Y-82949714D02*
X154178571Y-83025904D01*
X154178571Y-83025904D02*
X154216666Y-83064000D01*
X154216666Y-83064000D02*
X154292857Y-83102095D01*
X154292857Y-83102095D02*
X154445238Y-83102095D01*
X154445238Y-83102095D02*
X154521428Y-83064000D01*
X154521428Y-83064000D02*
X154559523Y-83025904D01*
X154559523Y-83025904D02*
X154597619Y-82949714D01*
X154597619Y-82949714D02*
X154597619Y-82302095D01*
X155359523Y-83102095D02*
X154978571Y-83102095D01*
X154978571Y-83102095D02*
X154978571Y-82302095D01*
X155626190Y-83102095D02*
X155626190Y-82302095D01*
X156083333Y-83102095D02*
X155740475Y-82644952D01*
X156083333Y-82302095D02*
X155626190Y-82759238D01*
X124890476Y-84602095D02*
X124890476Y-83802095D01*
X124890476Y-83802095D02*
X125195238Y-83802095D01*
X125195238Y-83802095D02*
X125271428Y-83840190D01*
X125271428Y-83840190D02*
X125309523Y-83878285D01*
X125309523Y-83878285D02*
X125347619Y-83954476D01*
X125347619Y-83954476D02*
X125347619Y-84068761D01*
X125347619Y-84068761D02*
X125309523Y-84144952D01*
X125309523Y-84144952D02*
X125271428Y-84183047D01*
X125271428Y-84183047D02*
X125195238Y-84221142D01*
X125195238Y-84221142D02*
X124890476Y-84221142D01*
X125690476Y-84602095D02*
X125690476Y-83802095D01*
X125690476Y-84183047D02*
X126147619Y-84183047D01*
X126147619Y-84602095D02*
X126147619Y-83802095D01*
X127099999Y-83764000D02*
X126414285Y-84792571D01*
X127366666Y-84602095D02*
X127366666Y-83802095D01*
X127747618Y-84602095D02*
X127747618Y-83802095D01*
X127747618Y-83802095D02*
X128204761Y-84602095D01*
X128204761Y-84602095D02*
X128204761Y-83802095D01*
X128547617Y-83878285D02*
X128585713Y-83840190D01*
X128585713Y-83840190D02*
X128661903Y-83802095D01*
X128661903Y-83802095D02*
X128852379Y-83802095D01*
X128852379Y-83802095D02*
X128928570Y-83840190D01*
X128928570Y-83840190D02*
X128966665Y-83878285D01*
X128966665Y-83878285D02*
X129004760Y-83954476D01*
X129004760Y-83954476D02*
X129004760Y-84030666D01*
X129004760Y-84030666D02*
X128966665Y-84144952D01*
X128966665Y-84144952D02*
X128509522Y-84602095D01*
X128509522Y-84602095D02*
X129004760Y-84602095D01*
X148590476Y-80797333D02*
X149200000Y-80797333D01*
X127409523Y-94140190D02*
X127333333Y-94102095D01*
X127333333Y-94102095D02*
X127219047Y-94102095D01*
X127219047Y-94102095D02*
X127104761Y-94140190D01*
X127104761Y-94140190D02*
X127028571Y-94216380D01*
X127028571Y-94216380D02*
X126990476Y-94292571D01*
X126990476Y-94292571D02*
X126952380Y-94444952D01*
X126952380Y-94444952D02*
X126952380Y-94559238D01*
X126952380Y-94559238D02*
X126990476Y-94711619D01*
X126990476Y-94711619D02*
X127028571Y-94787809D01*
X127028571Y-94787809D02*
X127104761Y-94864000D01*
X127104761Y-94864000D02*
X127219047Y-94902095D01*
X127219047Y-94902095D02*
X127295238Y-94902095D01*
X127295238Y-94902095D02*
X127409523Y-94864000D01*
X127409523Y-94864000D02*
X127447619Y-94825904D01*
X127447619Y-94825904D02*
X127447619Y-94559238D01*
X127447619Y-94559238D02*
X127295238Y-94559238D01*
X127790476Y-94902095D02*
X127790476Y-94102095D01*
X127790476Y-94102095D02*
X128247619Y-94902095D01*
X128247619Y-94902095D02*
X128247619Y-94102095D01*
X128628571Y-94902095D02*
X128628571Y-94102095D01*
X128628571Y-94102095D02*
X128819047Y-94102095D01*
X128819047Y-94102095D02*
X128933333Y-94140190D01*
X128933333Y-94140190D02*
X129009523Y-94216380D01*
X129009523Y-94216380D02*
X129047618Y-94292571D01*
X129047618Y-94292571D02*
X129085714Y-94444952D01*
X129085714Y-94444952D02*
X129085714Y-94559238D01*
X129085714Y-94559238D02*
X129047618Y-94711619D01*
X129047618Y-94711619D02*
X129009523Y-94787809D01*
X129009523Y-94787809D02*
X128933333Y-94864000D01*
X128933333Y-94864000D02*
X128819047Y-94902095D01*
X128819047Y-94902095D02*
X128628571Y-94902095D01*
%TO.C,MAGN*%
X143951429Y-93758895D02*
X143951429Y-92958895D01*
X143951429Y-92958895D02*
X144218095Y-93530323D01*
X144218095Y-93530323D02*
X144484762Y-92958895D01*
X144484762Y-92958895D02*
X144484762Y-93758895D01*
X144827619Y-93530323D02*
X145208572Y-93530323D01*
X144751429Y-93758895D02*
X145018096Y-92958895D01*
X145018096Y-92958895D02*
X145284762Y-93758895D01*
X145970476Y-92996990D02*
X145894286Y-92958895D01*
X145894286Y-92958895D02*
X145780000Y-92958895D01*
X145780000Y-92958895D02*
X145665714Y-92996990D01*
X145665714Y-92996990D02*
X145589524Y-93073180D01*
X145589524Y-93073180D02*
X145551429Y-93149371D01*
X145551429Y-93149371D02*
X145513333Y-93301752D01*
X145513333Y-93301752D02*
X145513333Y-93416038D01*
X145513333Y-93416038D02*
X145551429Y-93568419D01*
X145551429Y-93568419D02*
X145589524Y-93644609D01*
X145589524Y-93644609D02*
X145665714Y-93720800D01*
X145665714Y-93720800D02*
X145780000Y-93758895D01*
X145780000Y-93758895D02*
X145856191Y-93758895D01*
X145856191Y-93758895D02*
X145970476Y-93720800D01*
X145970476Y-93720800D02*
X146008572Y-93682704D01*
X146008572Y-93682704D02*
X146008572Y-93416038D01*
X146008572Y-93416038D02*
X145856191Y-93416038D01*
X146351429Y-93758895D02*
X146351429Y-92958895D01*
X146351429Y-92958895D02*
X146808572Y-93758895D01*
X146808572Y-93758895D02*
X146808572Y-92958895D01*
%TO.C,VM1*%
X150054000Y-87062000D02*
X151384000Y-87062000D01*
X150054000Y-88392000D02*
X150054000Y-87062000D01*
X150054000Y-89662000D02*
X150054000Y-89722000D01*
X150054000Y-89662000D02*
X152714000Y-89662000D01*
X150054000Y-89722000D02*
X152714000Y-89722000D01*
X152714000Y-89662000D02*
X152714000Y-89722000D01*
%TO.C,16k*%
X133527500Y-81287258D02*
X133527500Y-80812742D01*
X134572500Y-81287258D02*
X134572500Y-80812742D01*
%TO.C,G\u002A\u002A\u002A*%
G36*
X145523986Y-77703102D02*
G01*
X145519510Y-77707578D01*
X145515033Y-77703102D01*
X145519510Y-77698625D01*
X145523986Y-77703102D01*
G37*
G36*
X145523986Y-78678992D02*
G01*
X145519510Y-78683468D01*
X145515033Y-78678992D01*
X145519510Y-78674515D01*
X145523986Y-78678992D01*
G37*
G36*
X145595611Y-78705851D02*
G01*
X145591135Y-78710328D01*
X145586658Y-78705851D01*
X145591135Y-78701375D01*
X145595611Y-78705851D01*
G37*
G36*
X145613518Y-78714804D02*
G01*
X145609041Y-78719281D01*
X145604565Y-78714804D01*
X145609041Y-78710328D01*
X145613518Y-78714804D01*
G37*
G36*
X145631424Y-78723758D02*
G01*
X145626947Y-78728234D01*
X145622471Y-78723758D01*
X145626947Y-78719281D01*
X145631424Y-78723758D01*
G37*
G36*
X145649330Y-78732711D02*
G01*
X145644854Y-78737187D01*
X145640377Y-78732711D01*
X145644854Y-78728234D01*
X145649330Y-78732711D01*
G37*
G36*
X145667236Y-78741664D02*
G01*
X145662760Y-78746140D01*
X145658283Y-78741664D01*
X145662760Y-78737187D01*
X145667236Y-78741664D01*
G37*
G36*
X145685143Y-78750617D02*
G01*
X145680666Y-78755093D01*
X145676190Y-78750617D01*
X145680666Y-78746140D01*
X145685143Y-78750617D01*
G37*
G36*
X145703049Y-78759570D02*
G01*
X145698572Y-78764047D01*
X145694096Y-78759570D01*
X145698572Y-78755093D01*
X145703049Y-78759570D01*
G37*
G36*
X145720955Y-78768523D02*
G01*
X145716479Y-78773000D01*
X145712002Y-78768523D01*
X145716479Y-78764047D01*
X145720955Y-78768523D01*
G37*
G36*
X145738861Y-78777476D02*
G01*
X145734385Y-78781953D01*
X145729908Y-78777476D01*
X145734385Y-78773000D01*
X145738861Y-78777476D01*
G37*
G36*
X145756768Y-77613571D02*
G01*
X145752291Y-77618047D01*
X145747814Y-77613571D01*
X145752291Y-77609094D01*
X145756768Y-77613571D01*
G37*
G36*
X145756768Y-78786429D02*
G01*
X145752291Y-78790906D01*
X145747814Y-78786429D01*
X145752291Y-78781953D01*
X145756768Y-78786429D01*
G37*
G36*
X145810486Y-78822242D02*
G01*
X145806010Y-78826718D01*
X145801533Y-78822242D01*
X145806010Y-78817765D01*
X145810486Y-78822242D01*
G37*
G36*
X145882111Y-78893867D02*
G01*
X145877635Y-78898343D01*
X145873158Y-78893867D01*
X145877635Y-78889390D01*
X145882111Y-78893867D01*
G37*
G36*
X145953736Y-78884914D02*
G01*
X145949260Y-78889390D01*
X145944783Y-78884914D01*
X145949260Y-78880437D01*
X145953736Y-78884914D01*
G37*
G36*
X146240236Y-77550899D02*
G01*
X146235759Y-77555375D01*
X146231283Y-77550899D01*
X146235759Y-77546422D01*
X146240236Y-77550899D01*
G37*
G36*
X146249189Y-77532993D02*
G01*
X146244713Y-77537469D01*
X146240236Y-77532993D01*
X146244713Y-77528516D01*
X146249189Y-77532993D01*
G37*
G36*
X146338720Y-77488227D02*
G01*
X146334244Y-77492704D01*
X146329767Y-77488227D01*
X146334244Y-77483750D01*
X146338720Y-77488227D01*
G37*
G36*
X146356627Y-77479274D02*
G01*
X146352150Y-77483750D01*
X146347673Y-77479274D01*
X146352150Y-77474797D01*
X146356627Y-77479274D01*
G37*
G36*
X146401392Y-77756821D02*
G01*
X146396916Y-77761297D01*
X146392439Y-77756821D01*
X146396916Y-77752344D01*
X146401392Y-77756821D01*
G37*
G36*
X145144971Y-77782188D02*
G01*
X145146043Y-77792813D01*
X145144971Y-77794125D01*
X145139648Y-77792896D01*
X145139002Y-77788157D01*
X145142278Y-77780787D01*
X145144971Y-77782188D01*
G37*
G36*
X145153924Y-77809047D02*
G01*
X145154996Y-77819672D01*
X145153924Y-77820985D01*
X145148602Y-77819756D01*
X145147955Y-77815016D01*
X145151231Y-77807646D01*
X145153924Y-77809047D01*
G37*
G36*
X145162877Y-77835907D02*
G01*
X145163949Y-77846532D01*
X145162877Y-77847844D01*
X145157555Y-77846615D01*
X145156909Y-77841875D01*
X145160184Y-77834506D01*
X145162877Y-77835907D01*
G37*
G36*
X145171830Y-77871719D02*
G01*
X145172902Y-77882344D01*
X145171830Y-77883656D01*
X145166508Y-77882427D01*
X145165862Y-77877688D01*
X145169138Y-77870318D01*
X145171830Y-77871719D01*
G37*
G36*
X145180784Y-77898578D02*
G01*
X145181855Y-77909204D01*
X145180784Y-77910516D01*
X145175461Y-77909287D01*
X145174815Y-77904547D01*
X145178091Y-77897178D01*
X145180784Y-77898578D01*
G37*
G36*
X145189737Y-77925438D02*
G01*
X145190808Y-77936063D01*
X145189737Y-77937375D01*
X145184414Y-77936146D01*
X145183768Y-77931406D01*
X145187044Y-77924037D01*
X145189737Y-77925438D01*
G37*
G36*
X145198690Y-77952297D02*
G01*
X145199761Y-77962922D01*
X145198690Y-77964235D01*
X145193367Y-77963006D01*
X145192721Y-77958266D01*
X145195997Y-77950896D01*
X145198690Y-77952297D01*
G37*
G36*
X145199249Y-77755888D02*
G01*
X145196579Y-77759957D01*
X145187498Y-77760590D01*
X145177945Y-77758404D01*
X145182089Y-77755181D01*
X145196082Y-77754114D01*
X145199249Y-77755888D01*
G37*
G36*
X145207643Y-77988110D02*
G01*
X145208714Y-77998735D01*
X145207643Y-78000047D01*
X145202320Y-77998818D01*
X145201674Y-77994078D01*
X145204950Y-77986709D01*
X145207643Y-77988110D01*
G37*
G36*
X145216596Y-78014969D02*
G01*
X145217668Y-78025594D01*
X145216596Y-78026906D01*
X145211273Y-78025677D01*
X145210627Y-78020938D01*
X145213903Y-78013568D01*
X145216596Y-78014969D01*
G37*
G36*
X145225549Y-78041828D02*
G01*
X145226621Y-78052454D01*
X145225549Y-78053766D01*
X145220227Y-78052537D01*
X145219580Y-78047797D01*
X145222856Y-78040428D01*
X145225549Y-78041828D01*
G37*
G36*
X145234650Y-78072978D02*
G01*
X145235717Y-78086970D01*
X145233943Y-78090138D01*
X145229873Y-78087468D01*
X145229240Y-78078387D01*
X145231427Y-78068834D01*
X145234650Y-78072978D01*
G37*
G36*
X145248678Y-77764321D02*
G01*
X145249803Y-77767589D01*
X145237487Y-77768837D01*
X145224777Y-77767430D01*
X145226295Y-77764321D01*
X145244625Y-77763138D01*
X145248678Y-77764321D01*
G37*
G36*
X145288221Y-77773235D02*
G01*
X145286992Y-77778557D01*
X145282252Y-77779203D01*
X145274883Y-77775928D01*
X145276284Y-77773235D01*
X145286909Y-77772163D01*
X145288221Y-77773235D01*
G37*
G36*
X145315080Y-78337281D02*
G01*
X145316152Y-78347906D01*
X145315080Y-78349219D01*
X145309758Y-78347990D01*
X145309112Y-78343250D01*
X145312387Y-78335881D01*
X145315080Y-78337281D01*
G37*
G36*
X145324033Y-78364141D02*
G01*
X145325105Y-78374766D01*
X145324033Y-78376078D01*
X145318711Y-78374849D01*
X145318065Y-78370109D01*
X145321341Y-78362740D01*
X145324033Y-78364141D01*
G37*
G36*
X145332987Y-77764282D02*
G01*
X145331758Y-77769604D01*
X145327018Y-77770250D01*
X145319648Y-77766974D01*
X145321049Y-77764282D01*
X145331674Y-77763210D01*
X145332987Y-77764282D01*
G37*
G36*
X145332987Y-78391000D02*
G01*
X145334058Y-78401625D01*
X145332987Y-78402937D01*
X145327664Y-78401708D01*
X145327018Y-78396969D01*
X145330294Y-78389599D01*
X145332987Y-78391000D01*
G37*
G36*
X145342087Y-78422149D02*
G01*
X145343154Y-78436142D01*
X145341380Y-78439309D01*
X145337311Y-78436639D01*
X145336678Y-78427558D01*
X145338864Y-78418005D01*
X145342087Y-78422149D01*
G37*
G36*
X145350893Y-78453672D02*
G01*
X145351964Y-78464297D01*
X145350893Y-78465609D01*
X145345570Y-78464380D01*
X145344924Y-78459641D01*
X145348200Y-78452271D01*
X145350893Y-78453672D01*
G37*
G36*
X145359846Y-77755328D02*
G01*
X145358617Y-77760651D01*
X145353877Y-77761297D01*
X145346508Y-77758021D01*
X145347908Y-77755328D01*
X145358534Y-77754257D01*
X145359846Y-77755328D01*
G37*
G36*
X145359846Y-78480531D02*
G01*
X145360917Y-78491156D01*
X145359846Y-78492469D01*
X145354523Y-78491240D01*
X145353877Y-78486500D01*
X145357153Y-78479130D01*
X145359846Y-78480531D01*
G37*
G36*
X145368799Y-78507390D02*
G01*
X145369871Y-78518016D01*
X145368799Y-78519328D01*
X145363476Y-78518099D01*
X145362830Y-78513359D01*
X145366106Y-78505990D01*
X145368799Y-78507390D01*
G37*
G36*
X145377752Y-78543203D02*
G01*
X145378824Y-78553828D01*
X145377752Y-78555140D01*
X145372430Y-78553911D01*
X145371783Y-78549172D01*
X145375059Y-78541802D01*
X145377752Y-78543203D01*
G37*
G36*
X145386705Y-77746375D02*
G01*
X145385476Y-77751698D01*
X145380737Y-77752344D01*
X145373367Y-77749068D01*
X145374768Y-77746375D01*
X145385393Y-77745304D01*
X145386705Y-77746375D01*
G37*
G36*
X145386705Y-78570062D02*
G01*
X145387777Y-78580688D01*
X145386705Y-78582000D01*
X145381383Y-78580771D01*
X145380737Y-78576031D01*
X145384012Y-78568662D01*
X145386705Y-78570062D01*
G37*
G36*
X145395658Y-78596922D02*
G01*
X145396730Y-78607547D01*
X145395658Y-78608859D01*
X145390336Y-78607630D01*
X145389690Y-78602890D01*
X145392965Y-78595521D01*
X145395658Y-78596922D01*
G37*
G36*
X145404612Y-78623781D02*
G01*
X145405683Y-78634406D01*
X145404612Y-78635719D01*
X145399289Y-78634490D01*
X145398643Y-78629750D01*
X145401919Y-78622380D01*
X145404612Y-78623781D01*
G37*
G36*
X145413565Y-77737422D02*
G01*
X145412336Y-77742745D01*
X145407596Y-77743391D01*
X145400226Y-77740115D01*
X145401627Y-77737422D01*
X145412252Y-77736351D01*
X145413565Y-77737422D01*
G37*
G36*
X145440424Y-77728469D02*
G01*
X145439195Y-77733792D01*
X145434455Y-77734438D01*
X145427086Y-77731162D01*
X145428487Y-77728469D01*
X145439112Y-77727398D01*
X145440424Y-77728469D01*
G37*
G36*
X145467283Y-77719516D02*
G01*
X145466054Y-77724839D01*
X145461315Y-77725485D01*
X145453945Y-77722209D01*
X145455346Y-77719516D01*
X145465971Y-77718444D01*
X145467283Y-77719516D01*
G37*
G36*
X145494143Y-77710563D02*
G01*
X145492914Y-77715885D01*
X145488174Y-77716532D01*
X145480805Y-77713256D01*
X145482205Y-77710563D01*
X145492831Y-77709491D01*
X145494143Y-77710563D01*
G37*
G36*
X145503655Y-78669106D02*
G01*
X145500985Y-78673175D01*
X145491904Y-78673809D01*
X145482351Y-78671622D01*
X145486495Y-78668399D01*
X145500488Y-78667332D01*
X145503655Y-78669106D01*
G37*
G36*
X145547861Y-78686453D02*
G01*
X145546632Y-78691775D01*
X145541893Y-78692422D01*
X145534523Y-78689146D01*
X145535924Y-78686453D01*
X145546549Y-78685381D01*
X145547861Y-78686453D01*
G37*
G36*
X145556815Y-77692657D02*
G01*
X145555586Y-77697979D01*
X145550846Y-77698625D01*
X145543476Y-77695350D01*
X145544877Y-77692657D01*
X145555502Y-77691585D01*
X145556815Y-77692657D01*
G37*
G36*
X145574721Y-78695406D02*
G01*
X145573492Y-78700729D01*
X145568752Y-78701375D01*
X145561383Y-78698099D01*
X145562783Y-78695406D01*
X145573409Y-78694334D01*
X145574721Y-78695406D01*
G37*
G36*
X145583674Y-77683703D02*
G01*
X145582445Y-77689026D01*
X145577705Y-77689672D01*
X145570336Y-77686396D01*
X145571736Y-77683703D01*
X145582362Y-77682632D01*
X145583674Y-77683703D01*
G37*
G36*
X145610533Y-77674750D02*
G01*
X145609304Y-77680073D01*
X145604565Y-77680719D01*
X145597195Y-77677443D01*
X145598596Y-77674750D01*
X145609221Y-77673679D01*
X145610533Y-77674750D01*
G37*
G36*
X145637393Y-77665797D02*
G01*
X145636164Y-77671120D01*
X145631424Y-77671766D01*
X145624054Y-77668490D01*
X145625455Y-77665797D01*
X145636080Y-77664726D01*
X145637393Y-77665797D01*
G37*
G36*
X145664252Y-77656844D02*
G01*
X145663023Y-77662167D01*
X145658283Y-77662813D01*
X145650914Y-77659537D01*
X145652315Y-77656844D01*
X145662940Y-77655773D01*
X145664252Y-77656844D01*
G37*
G36*
X145691111Y-77647891D02*
G01*
X145689882Y-77653214D01*
X145685143Y-77653860D01*
X145677773Y-77650584D01*
X145679174Y-77647891D01*
X145689799Y-77646819D01*
X145691111Y-77647891D01*
G37*
G36*
X145717971Y-77638938D02*
G01*
X145716742Y-77644261D01*
X145712002Y-77644907D01*
X145704633Y-77641631D01*
X145706033Y-77638938D01*
X145716658Y-77637866D01*
X145717971Y-77638938D01*
G37*
G36*
X145744830Y-77629985D02*
G01*
X145743601Y-77635307D01*
X145738861Y-77635954D01*
X145731492Y-77632678D01*
X145732893Y-77629985D01*
X145743518Y-77628913D01*
X145744830Y-77629985D01*
G37*
G36*
X146317830Y-77495688D02*
G01*
X146316601Y-77501011D01*
X146311861Y-77501657D01*
X146304492Y-77498381D01*
X146305892Y-77495688D01*
X146316518Y-77494616D01*
X146317830Y-77495688D01*
G37*
G36*
X146362556Y-77508372D02*
G01*
X146363739Y-77526702D01*
X146362556Y-77530754D01*
X146359288Y-77531879D01*
X146358040Y-77519563D01*
X146359447Y-77506853D01*
X146362556Y-77508372D01*
G37*
G36*
X146371509Y-77562090D02*
G01*
X146372692Y-77580420D01*
X146371509Y-77584473D01*
X146368241Y-77585598D01*
X146366993Y-77573282D01*
X146368400Y-77560572D01*
X146371509Y-77562090D01*
G37*
G36*
X146380462Y-77615809D02*
G01*
X146381645Y-77634139D01*
X146380462Y-77638192D01*
X146377194Y-77639317D01*
X146375946Y-77627000D01*
X146377353Y-77614290D01*
X146380462Y-77615809D01*
G37*
G36*
X146389602Y-77679040D02*
G01*
X146390669Y-77693033D01*
X146388895Y-77696201D01*
X146384826Y-77693530D01*
X146384193Y-77684450D01*
X146386379Y-77674896D01*
X146389602Y-77679040D01*
G37*
G36*
X146407322Y-77785918D02*
G01*
X146408504Y-77804248D01*
X146407322Y-77808301D01*
X146404054Y-77809426D01*
X146402806Y-77797110D01*
X146404213Y-77784400D01*
X146407322Y-77785918D01*
G37*
G36*
X146416275Y-77839637D02*
G01*
X146417457Y-77857967D01*
X146416275Y-77862020D01*
X146413007Y-77863145D01*
X146411759Y-77850828D01*
X146413166Y-77838118D01*
X146416275Y-77839637D01*
G37*
G36*
X146416314Y-78480531D02*
G01*
X146415085Y-78485854D01*
X146410345Y-78486500D01*
X146402976Y-78483224D01*
X146404377Y-78480531D01*
X146415002Y-78479460D01*
X146416314Y-78480531D01*
G37*
G36*
X146425228Y-77893356D02*
G01*
X146426410Y-77911686D01*
X146425228Y-77915738D01*
X146421960Y-77916863D01*
X146420712Y-77904547D01*
X146422119Y-77891837D01*
X146425228Y-77893356D01*
G37*
G36*
X146434181Y-77947074D02*
G01*
X146435364Y-77965405D01*
X146434181Y-77969457D01*
X146430913Y-77970582D01*
X146429665Y-77958266D01*
X146431072Y-77945556D01*
X146434181Y-77947074D01*
G37*
G36*
X146443134Y-78009746D02*
G01*
X146444317Y-78028076D01*
X146443134Y-78032129D01*
X146439866Y-78033254D01*
X146438618Y-78020938D01*
X146440025Y-78008228D01*
X146443134Y-78009746D01*
G37*
G36*
X146452087Y-78063465D02*
G01*
X146453270Y-78081795D01*
X146452087Y-78085848D01*
X146448819Y-78086972D01*
X146447571Y-78074656D01*
X146448978Y-78061946D01*
X146452087Y-78063465D01*
G37*
G36*
X146452686Y-78490044D02*
G01*
X146450016Y-78494113D01*
X146440935Y-78494746D01*
X146431382Y-78492560D01*
X146435526Y-78489337D01*
X146449519Y-78488270D01*
X146452686Y-78490044D01*
G37*
G36*
X146461040Y-78117184D02*
G01*
X146462223Y-78135514D01*
X146461040Y-78139566D01*
X146457773Y-78140691D01*
X146456525Y-78128375D01*
X146457932Y-78115665D01*
X146461040Y-78117184D01*
G37*
G36*
X146469993Y-78170902D02*
G01*
X146471176Y-78189233D01*
X146469993Y-78193285D01*
X146466726Y-78194410D01*
X146465478Y-78182094D01*
X146466885Y-78169384D01*
X146469993Y-78170902D01*
G37*
G36*
X146478947Y-78224621D02*
G01*
X146480129Y-78242951D01*
X146478947Y-78247004D01*
X146475679Y-78248129D01*
X146474431Y-78235813D01*
X146475838Y-78223102D01*
X146478947Y-78224621D01*
G37*
G36*
X146488086Y-78287853D02*
G01*
X146489154Y-78301845D01*
X146487379Y-78305013D01*
X146483310Y-78302343D01*
X146482677Y-78293262D01*
X146484864Y-78283708D01*
X146488086Y-78287853D01*
G37*
G36*
X146496853Y-78341012D02*
G01*
X146498035Y-78359342D01*
X146496853Y-78363394D01*
X146493585Y-78364519D01*
X146492337Y-78352203D01*
X146493744Y-78339493D01*
X146496853Y-78341012D01*
G37*
G36*
X146505806Y-78394730D02*
G01*
X146506988Y-78413061D01*
X146505806Y-78417113D01*
X146502538Y-78418238D01*
X146501290Y-78405922D01*
X146502697Y-78393212D01*
X146505806Y-78394730D01*
G37*
G36*
X146514798Y-78444719D02*
G01*
X146515870Y-78455344D01*
X146514798Y-78456656D01*
X146509476Y-78455427D01*
X146508830Y-78450687D01*
X146512105Y-78443318D01*
X146514798Y-78444719D01*
G37*
G36*
X145773290Y-78794528D02*
G01*
X145782902Y-78803542D01*
X145780930Y-78808725D01*
X145779679Y-78808812D01*
X145772106Y-78802453D01*
X145769342Y-78798476D01*
X145768287Y-78792349D01*
X145773290Y-78794528D01*
G37*
G36*
X145844060Y-78866157D02*
G01*
X145860978Y-78882031D01*
X145863420Y-78888945D01*
X145861116Y-78889390D01*
X145853804Y-78883352D01*
X145840972Y-78869246D01*
X145823916Y-78849101D01*
X145844060Y-78866157D01*
G37*
G36*
X146285517Y-77509612D02*
G01*
X146273403Y-77518664D01*
X146259968Y-77526310D01*
X146260656Y-77523436D01*
X146269121Y-77514382D01*
X146282219Y-77503710D01*
X146288858Y-77502529D01*
X146285517Y-77509612D01*
G37*
G36*
X145143647Y-77749954D02*
G01*
X145142240Y-77756821D01*
X145135885Y-77768601D01*
X145133568Y-77770250D01*
X145130438Y-77762939D01*
X145130049Y-77756821D01*
X145134735Y-77744904D01*
X145138721Y-77743391D01*
X145143647Y-77749954D01*
G37*
G36*
X145454770Y-78659690D02*
G01*
X145455068Y-78662629D01*
X145441052Y-78663829D01*
X145438932Y-78663817D01*
X145425046Y-78662526D01*
X145426371Y-78659801D01*
X145427911Y-78659358D01*
X145447414Y-78658047D01*
X145454770Y-78659690D01*
G37*
G36*
X145780818Y-77579065D02*
G01*
X145779150Y-77582235D01*
X145770715Y-77590785D01*
X145769140Y-77591188D01*
X145768530Y-77585405D01*
X145770197Y-77582235D01*
X145778633Y-77573685D01*
X145780207Y-77573282D01*
X145780818Y-77579065D01*
G37*
G36*
X145930554Y-78899637D02*
G01*
X145920708Y-78904934D01*
X145905138Y-78907445D01*
X145892993Y-78906191D01*
X145891064Y-78903864D01*
X145898661Y-78899827D01*
X145913176Y-78896204D01*
X145927890Y-78895575D01*
X145930554Y-78899637D01*
G37*
G36*
X146004646Y-78760877D02*
G01*
X146002978Y-78764047D01*
X145994543Y-78772597D01*
X145992968Y-78773000D01*
X145992358Y-78767216D01*
X145994025Y-78764047D01*
X146002461Y-78755496D01*
X146004035Y-78755093D01*
X146004646Y-78760877D01*
G37*
G36*
X146050087Y-77585036D02*
G01*
X146052180Y-77587456D01*
X146039322Y-77588814D01*
X146029838Y-77588930D01*
X146012499Y-77588049D01*
X146009869Y-77586026D01*
X146014274Y-77584856D01*
X146037603Y-77583414D01*
X146050087Y-77585036D01*
G37*
G36*
X146052221Y-78732081D02*
G01*
X146045357Y-78739271D01*
X146034314Y-78746140D01*
X146020472Y-78751904D01*
X146016408Y-78751247D01*
X146023271Y-78744056D01*
X146034314Y-78737187D01*
X146048157Y-78731424D01*
X146052221Y-78732081D01*
G37*
G36*
X146076271Y-78716111D02*
G01*
X146074603Y-78719281D01*
X146066168Y-78727831D01*
X146064593Y-78728234D01*
X146063983Y-78722451D01*
X146065650Y-78719281D01*
X146074086Y-78710731D01*
X146075660Y-78710328D01*
X146076271Y-78716111D01*
G37*
G36*
X146103130Y-78698205D02*
G01*
X146101463Y-78701375D01*
X146093027Y-78709925D01*
X146091453Y-78710328D01*
X146090842Y-78704545D01*
X146092510Y-78701375D01*
X146100945Y-78692824D01*
X146102519Y-78692422D01*
X146103130Y-78698205D01*
G37*
G36*
X146129990Y-78680299D02*
G01*
X146128322Y-78683468D01*
X146119886Y-78692019D01*
X146118312Y-78692422D01*
X146117701Y-78686638D01*
X146119369Y-78683468D01*
X146127805Y-78674918D01*
X146129379Y-78674515D01*
X146129990Y-78680299D01*
G37*
G36*
X146139618Y-77576083D02*
G01*
X146141711Y-77578503D01*
X146128854Y-77579861D01*
X146119369Y-77579977D01*
X146102030Y-77579095D01*
X146099400Y-77577073D01*
X146103805Y-77575903D01*
X146127134Y-77574461D01*
X146139618Y-77576083D01*
G37*
G36*
X146165801Y-78652360D02*
G01*
X146160800Y-78658847D01*
X146147732Y-78672767D01*
X146141899Y-78672706D01*
X146141752Y-78671135D01*
X146147870Y-78663662D01*
X146157420Y-78655467D01*
X146168025Y-78647724D01*
X146165801Y-78652360D01*
G37*
G36*
X146192662Y-78635533D02*
G01*
X146190994Y-78638703D01*
X146182558Y-78647253D01*
X146180984Y-78647656D01*
X146180373Y-78641873D01*
X146182041Y-78638703D01*
X146190477Y-78630153D01*
X146192051Y-78629750D01*
X146192662Y-78635533D01*
G37*
G36*
X146215785Y-77567409D02*
G01*
X146216083Y-77570348D01*
X146202067Y-77571549D01*
X146199947Y-77571536D01*
X146186061Y-77570245D01*
X146187387Y-77567520D01*
X146188926Y-77567077D01*
X146208429Y-77565767D01*
X146215785Y-77567409D01*
G37*
G36*
X146228473Y-78607595D02*
G01*
X146223472Y-78614082D01*
X146210404Y-78628001D01*
X146204571Y-78627941D01*
X146204424Y-78626369D01*
X146210542Y-78618896D01*
X146220092Y-78610702D01*
X146230696Y-78602958D01*
X146228473Y-78607595D01*
G37*
G36*
X146255333Y-78590767D02*
G01*
X146253666Y-78593937D01*
X146245230Y-78602488D01*
X146243656Y-78602890D01*
X146243045Y-78597107D01*
X146244713Y-78593937D01*
X146253148Y-78585387D01*
X146254722Y-78584984D01*
X146255333Y-78590767D01*
G37*
G36*
X146291146Y-78563908D02*
G01*
X146289478Y-78567078D01*
X146281042Y-78575628D01*
X146279468Y-78576031D01*
X146278857Y-78570248D01*
X146280525Y-78567078D01*
X146288961Y-78558528D01*
X146290535Y-78558125D01*
X146291146Y-78563908D01*
G37*
G36*
X146326958Y-78535970D02*
G01*
X146321956Y-78542457D01*
X146308888Y-78556376D01*
X146303055Y-78556316D01*
X146302908Y-78554745D01*
X146309026Y-78547271D01*
X146318576Y-78539077D01*
X146329181Y-78531333D01*
X146326958Y-78535970D01*
G37*
G36*
X146362770Y-78509110D02*
G01*
X146357769Y-78515598D01*
X146344701Y-78529517D01*
X146338867Y-78529456D01*
X146338720Y-78527885D01*
X146344839Y-78520412D01*
X146354388Y-78512217D01*
X146364993Y-78504474D01*
X146362770Y-78509110D01*
G37*
G36*
X146389630Y-78492283D02*
G01*
X146387963Y-78495453D01*
X146379527Y-78504003D01*
X146377953Y-78504406D01*
X146377342Y-78498623D01*
X146379009Y-78495453D01*
X146387445Y-78486903D01*
X146389019Y-78486500D01*
X146389630Y-78492283D01*
G37*
G36*
X152435795Y-77564329D02*
G01*
X152435795Y-78047797D01*
X152341787Y-78047797D01*
X152247779Y-78047797D01*
X152247779Y-77564329D01*
X152247779Y-77080860D01*
X152341787Y-77080860D01*
X152435795Y-77080860D01*
X152435795Y-77564329D01*
G37*
G36*
X146496251Y-78484262D02*
G01*
X146481159Y-78498784D01*
X146470137Y-78504406D01*
X146464121Y-78502743D01*
X146464810Y-78502072D01*
X146473734Y-78495412D01*
X146490178Y-78482521D01*
X146490923Y-78481928D01*
X146513306Y-78464117D01*
X146496251Y-78484262D01*
G37*
G36*
X145976512Y-78778822D02*
G01*
X145970174Y-78784121D01*
X145957931Y-78801639D01*
X145951371Y-78822666D01*
X145947466Y-78849101D01*
X145946125Y-78820319D01*
X145948914Y-78796789D01*
X145962218Y-78783172D01*
X145964928Y-78781774D01*
X145978056Y-78775890D01*
X145976512Y-78778822D01*
G37*
G36*
X145837719Y-77560591D02*
G01*
X145843936Y-77566492D01*
X145865315Y-77582223D01*
X145891839Y-77590571D01*
X145917924Y-77593489D01*
X145967166Y-77596829D01*
X145917720Y-77598485D01*
X145886957Y-77598230D01*
X145866878Y-77593462D01*
X145850416Y-77582037D01*
X145844370Y-77576236D01*
X145827424Y-77561239D01*
X145815693Y-77558269D01*
X145804284Y-77564555D01*
X145793456Y-77572407D01*
X145795108Y-77569263D01*
X145803647Y-77559806D01*
X145814541Y-77549527D01*
X145823827Y-77549445D01*
X145837719Y-77560591D01*
G37*
G36*
X153868294Y-78468594D02*
G01*
X153868294Y-78549172D01*
X153608653Y-78549172D01*
X153349013Y-78549172D01*
X153349013Y-78665562D01*
X153349013Y-78781953D01*
X153582130Y-78781953D01*
X153815247Y-78781953D01*
X153812673Y-78864769D01*
X153810099Y-78947586D01*
X153579556Y-78949975D01*
X153349013Y-78952364D01*
X153349013Y-79068604D01*
X153349013Y-79184843D01*
X153613130Y-79184843D01*
X153877247Y-79184843D01*
X153877247Y-79265421D01*
X153877247Y-79345999D01*
X153519122Y-79345999D01*
X153160997Y-79345999D01*
X153160997Y-78867007D01*
X153160997Y-78388016D01*
X153514646Y-78388016D01*
X153868294Y-78388016D01*
X153868294Y-78468594D01*
G37*
G36*
X153353401Y-77398995D02*
G01*
X153403391Y-77465135D01*
X153450192Y-77526830D01*
X153492680Y-77582615D01*
X153529732Y-77631025D01*
X153560223Y-77670593D01*
X153583029Y-77699853D01*
X153597025Y-77717342D01*
X153601040Y-77721836D01*
X153602783Y-77714320D01*
X153604385Y-77690856D01*
X153605801Y-77653401D01*
X153606982Y-77603912D01*
X153607883Y-77544347D01*
X153608455Y-77476663D01*
X153608653Y-77403701D01*
X153608653Y-77080860D01*
X153698185Y-77080860D01*
X153787716Y-77080860D01*
X153787716Y-77564329D01*
X153787716Y-78047797D01*
X153699591Y-78047797D01*
X153611465Y-78047797D01*
X153370563Y-77728095D01*
X153129661Y-77408394D01*
X153125185Y-77725857D01*
X153120708Y-78043320D01*
X153028939Y-78045872D01*
X152937169Y-78048423D01*
X152937169Y-77564642D01*
X152937169Y-77080860D01*
X153025273Y-77080860D01*
X153113376Y-77080860D01*
X153353401Y-77398995D01*
G37*
G36*
X149880209Y-78388452D02*
G01*
X149953755Y-78390061D01*
X150014056Y-78393296D01*
X150063435Y-78398607D01*
X150104216Y-78406447D01*
X150138722Y-78417266D01*
X150169275Y-78431517D01*
X150198200Y-78449651D01*
X150227820Y-78472120D01*
X150229110Y-78473162D01*
X150271666Y-78518584D01*
X150302419Y-78574277D01*
X150321547Y-78637211D01*
X150329231Y-78704351D01*
X150325649Y-78772666D01*
X150310982Y-78839124D01*
X150285409Y-78900691D01*
X150249111Y-78954335D01*
X150202266Y-78997024D01*
X150197885Y-78999996D01*
X150161569Y-79021462D01*
X150123755Y-79037812D01*
X150081146Y-79049771D01*
X150030442Y-79058064D01*
X149968347Y-79063414D01*
X149895347Y-79066443D01*
X149740906Y-79070708D01*
X149740906Y-79208354D01*
X149740906Y-79345999D01*
X149646898Y-79345999D01*
X149552890Y-79345999D01*
X149552890Y-78867007D01*
X149552890Y-78546994D01*
X149740906Y-78546994D01*
X149740906Y-78723589D01*
X149740906Y-78900184D01*
X149886394Y-78896735D01*
X149945940Y-78894900D01*
X149990292Y-78892436D01*
X150022156Y-78889057D01*
X150044241Y-78884481D01*
X150058741Y-78878707D01*
X150102661Y-78845586D01*
X150133314Y-78802858D01*
X150149598Y-78753762D01*
X150150408Y-78701539D01*
X150135911Y-78652133D01*
X150118850Y-78620971D01*
X150098213Y-78596980D01*
X150071507Y-78579185D01*
X150036235Y-78566608D01*
X149989904Y-78558276D01*
X149930019Y-78553211D01*
X149877441Y-78551050D01*
X149740906Y-78546994D01*
X149552890Y-78546994D01*
X149552890Y-78388016D01*
X149791094Y-78388016D01*
X149880209Y-78388452D01*
G37*
G36*
X150711425Y-78972501D02*
G01*
X150745634Y-78894494D01*
X150780853Y-78814209D01*
X150815845Y-78734468D01*
X150818582Y-78728234D01*
X150965947Y-78392492D01*
X151066079Y-78392492D01*
X151166210Y-78392492D01*
X151371253Y-78866309D01*
X151408724Y-78952948D01*
X151443985Y-79034572D01*
X151476408Y-79109722D01*
X151505365Y-79176938D01*
X151530227Y-79234758D01*
X151550368Y-79281724D01*
X151565158Y-79316374D01*
X151573971Y-79337249D01*
X151576295Y-79343063D01*
X151567938Y-79344229D01*
X151545248Y-79345171D01*
X151511800Y-79345787D01*
X151475573Y-79345976D01*
X151374850Y-79345952D01*
X151334561Y-79247641D01*
X151294272Y-79149330D01*
X151060385Y-79149181D01*
X150826498Y-79149031D01*
X150786507Y-79245277D01*
X150746515Y-79341523D01*
X150647101Y-79344050D01*
X150547687Y-79346576D01*
X150609452Y-79205276D01*
X150627240Y-79164617D01*
X150650991Y-79110386D01*
X150679465Y-79045406D01*
X150708611Y-78978921D01*
X150897346Y-78978921D01*
X151057758Y-78978921D01*
X151109114Y-78978696D01*
X151153658Y-78978071D01*
X151188561Y-78977121D01*
X151210988Y-78975920D01*
X151218170Y-78974663D01*
X151214911Y-78965574D01*
X151205924Y-78942842D01*
X151192396Y-78909340D01*
X151175513Y-78867940D01*
X151156463Y-78821519D01*
X151136431Y-78772948D01*
X151116605Y-78725101D01*
X151098170Y-78680852D01*
X151082314Y-78643076D01*
X151070222Y-78614644D01*
X151063083Y-78598432D01*
X151061726Y-78595790D01*
X151057429Y-78602032D01*
X151048519Y-78620921D01*
X151036893Y-78648425D01*
X151036455Y-78649509D01*
X151024908Y-78677615D01*
X151008165Y-78717767D01*
X150988078Y-78765551D01*
X150966501Y-78816550D01*
X150955514Y-78842386D01*
X150897346Y-78978921D01*
X150708611Y-78978921D01*
X150711425Y-78972501D01*
G37*
G36*
X151101780Y-77407649D02*
G01*
X151102993Y-77492310D01*
X151104126Y-77560995D01*
X151105312Y-77615636D01*
X151106681Y-77658161D01*
X151108362Y-77690502D01*
X151110489Y-77714588D01*
X151113190Y-77732348D01*
X151116597Y-77745713D01*
X151120841Y-77756614D01*
X151126052Y-77766979D01*
X151126141Y-77767146D01*
X151161678Y-77815636D01*
X151209048Y-77851001D01*
X151267503Y-77872857D01*
X151336295Y-77880823D01*
X151347991Y-77880786D01*
X151412959Y-77872228D01*
X151467727Y-77848983D01*
X151512546Y-77810902D01*
X151543541Y-77765774D01*
X151548627Y-77755662D01*
X151552773Y-77744795D01*
X151556107Y-77731249D01*
X151558757Y-77713101D01*
X151560851Y-77688428D01*
X151562516Y-77655306D01*
X151563881Y-77611813D01*
X151565073Y-77556026D01*
X151566220Y-77486020D01*
X151567342Y-77407649D01*
X151571819Y-77085337D01*
X151665826Y-77085337D01*
X151759834Y-77085337D01*
X151759834Y-77398696D01*
X151759740Y-77488015D01*
X151759301Y-77561580D01*
X151758278Y-77621544D01*
X151756435Y-77670060D01*
X151753535Y-77709280D01*
X151749340Y-77741356D01*
X151743614Y-77768441D01*
X151736118Y-77792688D01*
X151726617Y-77816248D01*
X151714873Y-77841274D01*
X151709980Y-77851200D01*
X151669874Y-77912567D01*
X151616108Y-77965037D01*
X151551667Y-78006310D01*
X151479537Y-78034090D01*
X151468858Y-78036804D01*
X151430958Y-78043776D01*
X151385838Y-78049098D01*
X151340438Y-78052219D01*
X151301698Y-78052588D01*
X151285319Y-78051365D01*
X151192540Y-78032779D01*
X151113436Y-78002808D01*
X151047716Y-77961273D01*
X150995089Y-77907996D01*
X150959162Y-77850828D01*
X150946540Y-77824932D01*
X150936246Y-77801228D01*
X150928044Y-77777570D01*
X150921697Y-77751810D01*
X150916968Y-77721802D01*
X150913619Y-77685397D01*
X150911414Y-77640450D01*
X150910117Y-77584812D01*
X150909490Y-77516336D01*
X150909297Y-77432876D01*
X150909288Y-77398696D01*
X150909288Y-77085337D01*
X151003296Y-77085337D01*
X151097303Y-77085337D01*
X151101780Y-77407649D01*
G37*
G36*
X152415828Y-78383375D02*
G01*
X152474813Y-78394911D01*
X152534698Y-78412015D01*
X152588251Y-78432872D01*
X152598331Y-78437717D01*
X152634337Y-78457615D01*
X152668690Y-78479777D01*
X152698116Y-78501702D01*
X152719340Y-78520892D01*
X152729089Y-78534845D01*
X152729273Y-78537696D01*
X152722899Y-78549504D01*
X152708029Y-78571325D01*
X152687399Y-78599228D01*
X152678214Y-78611125D01*
X152629656Y-78673251D01*
X152593159Y-78642008D01*
X152565322Y-78621338D01*
X152529507Y-78598898D01*
X152498655Y-78582207D01*
X152466986Y-78567650D01*
X152440547Y-78559079D01*
X152412172Y-78554983D01*
X152374691Y-78553845D01*
X152364358Y-78553842D01*
X152292618Y-78560256D01*
X152230357Y-78580066D01*
X152173718Y-78614716D01*
X152150969Y-78633779D01*
X152104115Y-78687443D01*
X152071910Y-78748764D01*
X152054405Y-78815022D01*
X152051655Y-78883502D01*
X152063712Y-78951484D01*
X152090629Y-79016253D01*
X152132459Y-79075089D01*
X152142173Y-79085451D01*
X152196428Y-79128634D01*
X152258933Y-79157806D01*
X152326772Y-79172956D01*
X152397031Y-79174073D01*
X152466797Y-79161148D01*
X152533155Y-79134169D01*
X152593190Y-79093126D01*
X152599993Y-79087109D01*
X152625419Y-79063976D01*
X152682758Y-79126648D01*
X152740096Y-79189320D01*
X152697621Y-79227106D01*
X152650676Y-79262266D01*
X152592886Y-79295601D01*
X152531222Y-79323507D01*
X152476441Y-79341445D01*
X152421849Y-79350507D01*
X152358123Y-79353693D01*
X152293036Y-79351025D01*
X152234361Y-79342523D01*
X152226694Y-79340771D01*
X152153352Y-79315288D01*
X152081995Y-79276197D01*
X152016569Y-79226503D01*
X151961017Y-79169210D01*
X151919286Y-79107323D01*
X151918644Y-79106107D01*
X151890249Y-79046682D01*
X151871988Y-78993482D01*
X151862069Y-78939376D01*
X151858705Y-78877229D01*
X151858655Y-78867007D01*
X151863799Y-78785540D01*
X151880293Y-78713554D01*
X151909716Y-78645528D01*
X151933360Y-78605662D01*
X151987442Y-78538035D01*
X152054455Y-78480504D01*
X152131651Y-78434510D01*
X152216287Y-78401493D01*
X152305616Y-78382894D01*
X152364976Y-78379218D01*
X152415828Y-78383375D01*
G37*
G36*
X149915492Y-77085384D02*
G01*
X149989960Y-77085478D01*
X150049028Y-77085833D01*
X150095202Y-77086612D01*
X150130986Y-77087975D01*
X150158886Y-77090083D01*
X150181408Y-77093096D01*
X150201057Y-77097176D01*
X150220339Y-77102483D01*
X150230494Y-77105606D01*
X150303348Y-77136362D01*
X150362332Y-77178363D01*
X150407175Y-77231208D01*
X150437608Y-77294495D01*
X150453361Y-77367823D01*
X150454905Y-77439635D01*
X150443207Y-77517918D01*
X150417857Y-77586992D01*
X150379703Y-77645395D01*
X150329594Y-77691664D01*
X150297040Y-77711517D01*
X150269174Y-77725927D01*
X150368124Y-77873960D01*
X150398763Y-77920062D01*
X150426050Y-77961628D01*
X150448376Y-77996164D01*
X150464133Y-78021180D01*
X150471713Y-78034184D01*
X150472026Y-78034895D01*
X150471558Y-78040448D01*
X150463374Y-78044167D01*
X150444878Y-78046377D01*
X150413475Y-78047405D01*
X150370820Y-78047585D01*
X150264663Y-78047373D01*
X150183093Y-77906573D01*
X150101522Y-77765774D01*
X149979638Y-77763284D01*
X149857754Y-77760795D01*
X149855287Y-77902058D01*
X149852820Y-78043320D01*
X149760890Y-78045874D01*
X149715987Y-78046473D01*
X149686512Y-78045156D01*
X149670071Y-78041699D01*
X149664555Y-78036921D01*
X149663753Y-78025991D01*
X149663086Y-77998865D01*
X149662560Y-77957250D01*
X149662183Y-77902855D01*
X149661962Y-77837389D01*
X149661905Y-77762560D01*
X149662018Y-77680078D01*
X149662310Y-77591650D01*
X149662477Y-77555375D01*
X149663984Y-77250969D01*
X149857296Y-77250969D01*
X149857296Y-77426825D01*
X149857296Y-77602681D01*
X149998308Y-77598093D01*
X150061401Y-77595411D01*
X150109139Y-77591839D01*
X150144061Y-77587094D01*
X150168707Y-77580897D01*
X150174804Y-77578576D01*
X150213399Y-77558477D01*
X150240044Y-77533624D01*
X150260680Y-77498425D01*
X150261255Y-77497180D01*
X150274743Y-77450462D01*
X150275615Y-77401120D01*
X150264843Y-77353914D01*
X150243401Y-77313604D01*
X150218703Y-77289150D01*
X150194629Y-77274900D01*
X150166363Y-77264487D01*
X150130885Y-77257411D01*
X150085175Y-77253168D01*
X150026216Y-77251258D01*
X149989355Y-77251019D01*
X149857296Y-77250969D01*
X149663984Y-77250969D01*
X149664804Y-77085337D01*
X149915492Y-77085384D01*
G37*
G36*
X148782882Y-78381644D02*
G01*
X148864979Y-78390031D01*
X148938110Y-78406529D01*
X149010138Y-78433130D01*
X149039615Y-78446667D01*
X149103816Y-78477537D01*
X149066764Y-78558655D01*
X149047629Y-78598444D01*
X149033221Y-78623136D01*
X149022351Y-78634532D01*
X149015993Y-78635501D01*
X149001901Y-78630079D01*
X148976149Y-78619298D01*
X148943412Y-78605133D01*
X148930208Y-78599315D01*
X148849096Y-78569467D01*
X148774646Y-78554513D01*
X148707888Y-78554604D01*
X148672570Y-78561762D01*
X148641538Y-78572214D01*
X148623006Y-78583218D01*
X148611809Y-78598262D01*
X148608786Y-78604844D01*
X148602422Y-78641184D01*
X148610637Y-78678096D01*
X148623029Y-78698420D01*
X148636490Y-78710492D01*
X148658445Y-78723489D01*
X148690890Y-78738284D01*
X148735816Y-78755754D01*
X148795218Y-78776772D01*
X148823211Y-78786279D01*
X148903713Y-78815841D01*
X148968100Y-78845458D01*
X149018111Y-78876549D01*
X149055485Y-78910533D01*
X149081963Y-78948830D01*
X149099282Y-78992858D01*
X149104767Y-79016006D01*
X149110049Y-79085211D01*
X149098267Y-79149892D01*
X149069944Y-79208883D01*
X149025604Y-79261021D01*
X148978058Y-79297591D01*
X148925242Y-79323132D01*
X148860440Y-79341311D01*
X148788227Y-79351569D01*
X148713180Y-79353346D01*
X148639877Y-79346083D01*
X148617289Y-79341703D01*
X148561761Y-79326320D01*
X148504232Y-79304937D01*
X148449050Y-79279645D01*
X148400568Y-79252540D01*
X148363136Y-79225713D01*
X148349917Y-79213052D01*
X148343066Y-79204202D01*
X148340701Y-79194661D01*
X148343714Y-79180782D01*
X148352995Y-79158918D01*
X148369436Y-79125419D01*
X148373090Y-79118139D01*
X148412029Y-79040646D01*
X148454429Y-79073022D01*
X148512540Y-79110453D01*
X148581082Y-79143433D01*
X148652603Y-79168472D01*
X148665642Y-79171975D01*
X148723577Y-79181688D01*
X148776883Y-79181189D01*
X148823484Y-79171527D01*
X148861305Y-79153749D01*
X148888270Y-79128902D01*
X148902302Y-79098036D01*
X148901326Y-79062197D01*
X148899027Y-79054156D01*
X148888846Y-79032398D01*
X148872328Y-79013284D01*
X148847219Y-78995486D01*
X148811261Y-78977672D01*
X148762200Y-78958514D01*
X148702344Y-78938163D01*
X148639657Y-78917340D01*
X148591138Y-78900029D01*
X148553742Y-78884808D01*
X148524425Y-78870255D01*
X148500142Y-78854947D01*
X148477848Y-78837462D01*
X148467725Y-78828569D01*
X148427675Y-78781050D01*
X148403335Y-78725117D01*
X148395130Y-78666746D01*
X148401370Y-78596743D01*
X148423086Y-78535736D01*
X148460182Y-78483886D01*
X148512563Y-78441349D01*
X148541721Y-78424975D01*
X148601797Y-78399954D01*
X148663298Y-78385401D01*
X148731756Y-78380321D01*
X148782882Y-78381644D01*
G37*
G36*
X148800183Y-77082675D02*
G01*
X148851776Y-77083814D01*
X148892606Y-77085919D01*
X148925048Y-77089076D01*
X148951480Y-77093371D01*
X148953396Y-77093765D01*
X149028334Y-77115376D01*
X149087829Y-77145875D01*
X149132126Y-77185516D01*
X149161468Y-77234552D01*
X149176101Y-77293237D01*
X149177978Y-77327030D01*
X149171011Y-77389421D01*
X149149609Y-77441722D01*
X149113017Y-77485152D01*
X149060483Y-77520931D01*
X149057078Y-77522720D01*
X149031423Y-77536031D01*
X149077619Y-77555904D01*
X149129372Y-77587072D01*
X149169430Y-77629190D01*
X149197475Y-77679382D01*
X149213186Y-77734769D01*
X149216245Y-77792473D01*
X149206333Y-77849617D01*
X149183131Y-77903324D01*
X149146320Y-77950715D01*
X149123580Y-77970484D01*
X149098069Y-77989031D01*
X149073599Y-78004101D01*
X149047949Y-78016084D01*
X149018901Y-78025372D01*
X148984235Y-78032354D01*
X148941732Y-78037421D01*
X148889173Y-78040964D01*
X148824338Y-78043372D01*
X148745009Y-78045035D01*
X148695650Y-78045758D01*
X148616499Y-78046682D01*
X148553540Y-78047079D01*
X148505062Y-78046896D01*
X148469357Y-78046081D01*
X148444715Y-78044582D01*
X148429428Y-78042348D01*
X148421786Y-78039327D01*
X148420252Y-78037392D01*
X148419416Y-78026370D01*
X148418716Y-77999153D01*
X148418161Y-77957452D01*
X148417757Y-77902979D01*
X148417514Y-77837443D01*
X148417440Y-77762555D01*
X148417541Y-77680027D01*
X148417683Y-77635954D01*
X148612813Y-77635954D01*
X148612813Y-77756821D01*
X148612813Y-77877688D01*
X148763119Y-77877688D01*
X148819340Y-77877510D01*
X148860933Y-77876746D01*
X148891176Y-77875048D01*
X148913344Y-77872070D01*
X148930716Y-77867465D01*
X148946567Y-77860884D01*
X148953372Y-77857543D01*
X148990406Y-77830557D01*
X149013581Y-77795887D01*
X149022026Y-77756904D01*
X149014866Y-77716977D01*
X148997578Y-77686951D01*
X148979273Y-77669140D01*
X148954526Y-77655705D01*
X148921010Y-77646159D01*
X148876398Y-77640012D01*
X148818363Y-77636778D01*
X148754468Y-77635954D01*
X148612813Y-77635954D01*
X148417683Y-77635954D01*
X148417827Y-77591570D01*
X148417993Y-77555375D01*
X148419501Y-77250969D01*
X148612813Y-77250969D01*
X148612813Y-77363935D01*
X148612813Y-77476900D01*
X148758301Y-77473308D01*
X148814837Y-77471631D01*
X148856546Y-77469565D01*
X148886506Y-77466741D01*
X148907797Y-77462794D01*
X148923498Y-77457355D01*
X148932742Y-77452506D01*
X148962181Y-77426192D01*
X148980446Y-77391726D01*
X148986567Y-77353930D01*
X148979577Y-77317630D01*
X148964626Y-77293708D01*
X148949089Y-77278493D01*
X148932072Y-77267338D01*
X148910598Y-77259629D01*
X148881688Y-77254757D01*
X148842366Y-77252109D01*
X148789653Y-77251073D01*
X148756507Y-77250969D01*
X148612813Y-77250969D01*
X148419501Y-77250969D01*
X148420321Y-77085337D01*
X148655201Y-77082950D01*
X148735450Y-77082416D01*
X148800183Y-77082675D01*
G37*
G36*
X145908524Y-76637785D02*
G01*
X146071380Y-76655291D01*
X146231087Y-76689991D01*
X146386558Y-76741649D01*
X146536711Y-76810028D01*
X146680458Y-76894890D01*
X146683415Y-76896858D01*
X146813965Y-76992940D01*
X146930095Y-77098002D01*
X147033975Y-77214285D01*
X147127777Y-77344031D01*
X147149672Y-77378456D01*
X147169958Y-77411951D01*
X147186084Y-77440102D01*
X147196025Y-77459283D01*
X147198220Y-77465403D01*
X147190394Y-77472707D01*
X147170671Y-77480919D01*
X147160169Y-77483984D01*
X147125951Y-77493418D01*
X147080628Y-77506675D01*
X147029199Y-77522214D01*
X146976661Y-77538490D01*
X146928014Y-77553964D01*
X146888256Y-77567091D01*
X146869168Y-77573773D01*
X146814958Y-77596155D01*
X146759378Y-77623587D01*
X146706381Y-77653723D01*
X146659920Y-77684215D01*
X146623949Y-77712714D01*
X146608445Y-77728598D01*
X146601132Y-77739933D01*
X146608027Y-77743269D01*
X146612933Y-77743379D01*
X146640904Y-77740995D01*
X146680134Y-77734702D01*
X146724732Y-77725738D01*
X146768806Y-77715343D01*
X146806467Y-77704756D01*
X146822199Y-77699344D01*
X146849072Y-77689776D01*
X146889688Y-77676196D01*
X146940620Y-77659675D01*
X146998443Y-77641284D01*
X147059729Y-77622093D01*
X147121053Y-77603175D01*
X147178987Y-77585599D01*
X147230105Y-77570438D01*
X147270981Y-77558762D01*
X147278798Y-77556621D01*
X147369787Y-77533803D01*
X147458607Y-77514968D01*
X147542818Y-77500425D01*
X147619983Y-77490486D01*
X147687662Y-77485462D01*
X147743418Y-77485665D01*
X147784811Y-77491406D01*
X147786407Y-77491830D01*
X147818834Y-77506025D01*
X147843043Y-77526792D01*
X147855665Y-77550413D01*
X147855435Y-77567974D01*
X147834014Y-77615831D01*
X147796957Y-77668465D01*
X147744030Y-77726103D01*
X147674995Y-77788974D01*
X147589617Y-77857306D01*
X147487659Y-77931327D01*
X147457798Y-77951947D01*
X147374165Y-78009151D01*
X147376221Y-78160532D01*
X147372233Y-78315438D01*
X147355366Y-78460748D01*
X147324819Y-78600084D01*
X147279793Y-78737066D01*
X147219488Y-78875318D01*
X147217462Y-78879467D01*
X147137662Y-79022380D01*
X147043742Y-79155078D01*
X146936848Y-79276708D01*
X146818124Y-79386418D01*
X146688714Y-79483354D01*
X146549764Y-79566663D01*
X146402417Y-79635494D01*
X146247818Y-79688992D01*
X146087112Y-79726305D01*
X146079080Y-79727706D01*
X146047135Y-79731875D01*
X146003216Y-79735793D01*
X145951074Y-79739312D01*
X145894458Y-79742282D01*
X145837118Y-79744554D01*
X145782802Y-79745977D01*
X145735261Y-79746402D01*
X145698244Y-79745680D01*
X145676190Y-79743785D01*
X145656397Y-79740605D01*
X145625327Y-79735902D01*
X145589435Y-79730652D01*
X145586658Y-79730253D01*
X145432561Y-79699306D01*
X145281100Y-79651544D01*
X145134466Y-79588052D01*
X144994848Y-79509916D01*
X144864436Y-79418220D01*
X144745421Y-79314051D01*
X144743934Y-79312596D01*
X144675655Y-79245661D01*
X144546966Y-79277698D01*
X144427526Y-79305303D01*
X144322669Y-79325050D01*
X144232678Y-79336912D01*
X144157836Y-79340863D01*
X144098425Y-79336878D01*
X144054727Y-79324930D01*
X144051198Y-79323280D01*
X144027399Y-79309072D01*
X144016010Y-79293567D01*
X144012600Y-79276881D01*
X144015753Y-79242886D01*
X144031715Y-79204750D01*
X144060943Y-79162031D01*
X144103895Y-79114289D01*
X144161030Y-79061081D01*
X144232805Y-79001968D01*
X144319679Y-78936509D01*
X144422110Y-78864262D01*
X144486486Y-78820642D01*
X144663000Y-78704934D01*
X144830197Y-78600252D01*
X144986868Y-78507340D01*
X145067377Y-78461933D01*
X145132996Y-78425823D01*
X145184550Y-78397855D01*
X145223511Y-78377273D01*
X145251350Y-78363317D01*
X145269541Y-78355231D01*
X145279555Y-78352256D01*
X145280478Y-78352203D01*
X145287492Y-78359975D01*
X145295970Y-78379576D01*
X145299377Y-78390254D01*
X145306039Y-78412572D01*
X145316768Y-78447703D01*
X145330252Y-78491380D01*
X145345177Y-78539337D01*
X145350240Y-78555519D01*
X145390098Y-78682734D01*
X145423468Y-78687856D01*
X145476360Y-78698987D01*
X145533143Y-78717247D01*
X145597459Y-78743962D01*
X145659520Y-78773678D01*
X145714145Y-78802476D01*
X145756101Y-78828286D01*
X145789655Y-78853940D01*
X145811938Y-78874849D01*
X145846622Y-78907025D01*
X145875277Y-78925328D01*
X145901494Y-78930985D01*
X145928866Y-78925225D01*
X145942225Y-78919378D01*
X145962279Y-78908279D01*
X145972733Y-78896247D01*
X145977249Y-78876962D01*
X145978809Y-78856273D01*
X145981500Y-78809726D01*
X146086247Y-78740952D01*
X146135194Y-78708168D01*
X146191555Y-78669401D01*
X146248443Y-78629439D01*
X146298970Y-78593074D01*
X146300077Y-78592264D01*
X146409160Y-78512350D01*
X146447509Y-78522676D01*
X146471068Y-78528174D01*
X146486338Y-78526857D01*
X146500644Y-78516360D01*
X146515409Y-78500755D01*
X146535427Y-78474353D01*
X146541208Y-78453380D01*
X146540558Y-78448406D01*
X146538335Y-78435952D01*
X146533560Y-78407516D01*
X146526509Y-78364798D01*
X146517460Y-78309495D01*
X146506688Y-78243308D01*
X146494471Y-78167935D01*
X146481085Y-78085077D01*
X146466808Y-77996431D01*
X146459236Y-77949313D01*
X146440988Y-77836484D01*
X146425159Y-77740437D01*
X146411576Y-77660233D01*
X146400066Y-77594936D01*
X146390454Y-77543609D01*
X146382566Y-77505315D01*
X146376230Y-77479118D01*
X146371272Y-77464080D01*
X146368477Y-77459653D01*
X146350082Y-77455553D01*
X146322463Y-77460788D01*
X146290270Y-77473369D01*
X146258154Y-77491312D01*
X146230765Y-77512630D01*
X146221542Y-77522408D01*
X146212010Y-77530098D01*
X146195831Y-77536346D01*
X146170025Y-77541826D01*
X146131611Y-77547208D01*
X146091722Y-77551693D01*
X146024449Y-77558453D01*
X145972426Y-77562626D01*
X145933166Y-77564101D01*
X145904184Y-77562766D01*
X145882995Y-77558512D01*
X145867114Y-77551226D01*
X145854344Y-77541076D01*
X145835206Y-77526693D01*
X145816700Y-77523493D01*
X145795601Y-77532399D01*
X145768685Y-77554332D01*
X145752235Y-77570275D01*
X145738818Y-77583218D01*
X145725623Y-77594082D01*
X145710242Y-77603913D01*
X145690267Y-77613758D01*
X145663287Y-77624664D01*
X145626893Y-77637677D01*
X145578678Y-77653845D01*
X145516232Y-77674214D01*
X145503634Y-77678298D01*
X145295682Y-77745672D01*
X145224057Y-77734871D01*
X145189247Y-77729434D01*
X145160879Y-77724657D01*
X145143964Y-77721395D01*
X145142111Y-77720916D01*
X145127280Y-77723173D01*
X145115622Y-77729584D01*
X145110567Y-77734343D01*
X145107790Y-77741293D01*
X145107757Y-77752692D01*
X145110932Y-77770796D01*
X145117778Y-77797864D01*
X145128760Y-77836153D01*
X145144343Y-77887920D01*
X145156090Y-77926380D01*
X145172552Y-77980728D01*
X145186830Y-78028991D01*
X145198210Y-78068663D01*
X145205980Y-78097240D01*
X145209427Y-78112216D01*
X145209439Y-78113835D01*
X145200317Y-78117391D01*
X145176999Y-78125745D01*
X145142239Y-78137931D01*
X145098794Y-78152982D01*
X145053948Y-78168384D01*
X144957049Y-78201974D01*
X144850383Y-78239719D01*
X144739133Y-78279737D01*
X144628484Y-78320146D01*
X144523621Y-78359066D01*
X144429728Y-78394614D01*
X144415517Y-78400076D01*
X144358588Y-78421252D01*
X144317711Y-78434718D01*
X144292788Y-78440503D01*
X144283787Y-78438870D01*
X144281776Y-78426361D01*
X144278873Y-78399715D01*
X144275443Y-78362657D01*
X144271851Y-78318912D01*
X144271314Y-78311914D01*
X144267666Y-78227102D01*
X144268541Y-78135576D01*
X144273637Y-78044480D01*
X144282657Y-77960958D01*
X144287273Y-77931406D01*
X144323996Y-77770414D01*
X144376622Y-77616322D01*
X144444229Y-77470042D01*
X144525891Y-77332490D01*
X144620685Y-77204577D01*
X144727688Y-77087217D01*
X144845976Y-76981325D01*
X144974624Y-76887814D01*
X145112709Y-76807597D01*
X145259308Y-76741587D01*
X145413495Y-76690699D01*
X145574349Y-76655846D01*
X145577705Y-76655306D01*
X145743604Y-76637711D01*
X145908524Y-76637785D01*
G37*
%TO.C,0.1uF*%
X146377500Y-86337258D02*
X146377500Y-85862742D01*
X147422500Y-86337258D02*
X147422500Y-85862742D01*
%TO.C,10k*%
X135527500Y-81337258D02*
X135527500Y-80862742D01*
X136572500Y-81337258D02*
X136572500Y-80862742D01*
%TO.C,2.5kOhms*%
X134230342Y-89266500D02*
X134704858Y-89266500D01*
X134230342Y-90311500D02*
X134704858Y-90311500D01*
%TO.C,50kOhms*%
X140562742Y-89302500D02*
X141037258Y-89302500D01*
X140562742Y-90347500D02*
X141037258Y-90347500D01*
%TO.C,STM*%
X129226000Y-77918000D02*
X130556000Y-77918000D01*
X129226000Y-79248000D02*
X129226000Y-77918000D01*
X129226000Y-80518000D02*
X129226000Y-95818000D01*
X129226000Y-80518000D02*
X131886000Y-80518000D01*
X129226000Y-95818000D02*
X131886000Y-95818000D01*
X131886000Y-80518000D02*
X131886000Y-95818000D01*
D12*
%TO.C,U1*%
X138362000Y-83628000D02*
X142022000Y-83628000D01*
X138362000Y-88628000D02*
X142022000Y-88628000D01*
D13*
X136092000Y-83728000D02*
G75*
G03*
X136092000Y-83728000I-100000J0D01*
G01*
D10*
%TO.C,BULKCAP1*%
X152770000Y-81345000D02*
X152770000Y-82675000D01*
X151440000Y-81345000D02*
X152770000Y-81345000D01*
X150170000Y-81345000D02*
X147570000Y-81345000D01*
X150170000Y-81345000D02*
X150170000Y-84005000D01*
X147570000Y-81345000D02*
X147570000Y-84005000D01*
X150170000Y-84005000D02*
X147570000Y-84005000D01*
%TO.C,0.1uF*%
X147977500Y-86337258D02*
X147977500Y-85862742D01*
X149022500Y-86337258D02*
X149022500Y-85862742D01*
%TO.C,0.022uF*%
X144777500Y-83512258D02*
X144777500Y-83037742D01*
X145822500Y-83512258D02*
X145822500Y-83037742D01*
%TO.C,MAGN*%
X138238000Y-94598800D02*
X138238000Y-93268800D01*
X139568000Y-94598800D02*
X138238000Y-94598800D01*
X140838000Y-94598800D02*
X143438000Y-94598800D01*
X140838000Y-94598800D02*
X140838000Y-91938800D01*
X143438000Y-94598800D02*
X143438000Y-91938800D01*
X140838000Y-91938800D02*
X143438000Y-91938800D01*
%TD*%
M02*
