%TF.GenerationSoftware,KiCad,Pcbnew,7.0.1*%
%TF.CreationDate,2023-05-06T21:47:35-07:00*%
%TF.ProjectId,MAGNETORQUERS,4d41474e-4554-44f5-9251-554552532e6b,rev?*%
%TF.SameCoordinates,Original*%
%TF.FileFunction,Soldermask,Top*%
%TF.FilePolarity,Negative*%
%FSLAX46Y46*%
G04 Gerber Fmt 4.6, Leading zero omitted, Abs format (unit mm)*
G04 Created by KiCad (PCBNEW 7.0.1) date 2023-05-06 21:47:35*
%MOMM*%
%LPD*%
G01*
G04 APERTURE LIST*
G04 Aperture macros list*
%AMRoundRect*
0 Rectangle with rounded corners*
0 $1 Rounding radius*
0 $2 $3 $4 $5 $6 $7 $8 $9 X,Y pos of 4 corners*
0 Add a 4 corners polygon primitive as box body*
4,1,4,$2,$3,$4,$5,$6,$7,$8,$9,$2,$3,0*
0 Add four circle primitives for the rounded corners*
1,1,$1+$1,$2,$3*
1,1,$1+$1,$4,$5*
1,1,$1+$1,$6,$7*
1,1,$1+$1,$8,$9*
0 Add four rect primitives between the rounded corners*
20,1,$1+$1,$2,$3,$4,$5,0*
20,1,$1+$1,$4,$5,$6,$7,0*
20,1,$1+$1,$6,$7,$8,$9,0*
20,1,$1+$1,$8,$9,$2,$3,0*%
G04 Aperture macros list end*
%ADD10C,0.010000*%
%ADD11R,1.700000X1.700000*%
%ADD12RoundRect,0.200000X0.275000X-0.200000X0.275000X0.200000X-0.275000X0.200000X-0.275000X-0.200000X0*%
%ADD13RoundRect,0.200000X-0.200000X-0.275000X0.200000X-0.275000X0.200000X0.275000X-0.200000X0.275000X0*%
%ADD14O,1.700000X1.700000*%
%ADD15RoundRect,0.027000X-0.723000X-0.198000X0.723000X-0.198000X0.723000X0.198000X-0.723000X0.198000X0*%
G04 APERTURE END LIST*
%TO.C,U1*%
D10*
X141422000Y-87283000D02*
X138962000Y-87283000D01*
X138962000Y-84973000D01*
X141422000Y-84973000D01*
X141422000Y-87283000D01*
G36*
X141422000Y-87283000D02*
G01*
X138962000Y-87283000D01*
X138962000Y-84973000D01*
X141422000Y-84973000D01*
X141422000Y-87283000D01*
G37*
%TD*%
D11*
%TO.C,VM1*%
X151384000Y-88392000D03*
%TD*%
D12*
%TO.C,16k*%
X134050000Y-81875000D03*
X134050000Y-80225000D03*
%TD*%
%TO.C,0.1uF*%
X146900000Y-86925000D03*
X146900000Y-85275000D03*
%TD*%
%TO.C,10k*%
X136050000Y-81925000D03*
X136050000Y-80275000D03*
%TD*%
D13*
%TO.C,2.5kOhms*%
X133642600Y-89789000D03*
X135292600Y-89789000D03*
%TD*%
%TO.C,50kOhms*%
X139975000Y-89825000D03*
X141625000Y-89825000D03*
%TD*%
D11*
%TO.C,STM*%
X130556000Y-79248000D03*
D14*
X130556000Y-81788000D03*
X130556000Y-84328000D03*
X130556000Y-86868000D03*
X130556000Y-89408000D03*
X130556000Y-91948000D03*
X130556000Y-94488000D03*
%TD*%
D15*
%TO.C,U1*%
X137292000Y-83853000D03*
X137292000Y-84503000D03*
X137292000Y-85153000D03*
X137292000Y-85803000D03*
X137292000Y-86453000D03*
X137292000Y-87103000D03*
X137292000Y-87753000D03*
X137292000Y-88403000D03*
X143092000Y-88403000D03*
X143092000Y-87753000D03*
X143092000Y-87103000D03*
X143092000Y-86453000D03*
X143092000Y-85803000D03*
X143092000Y-85153000D03*
X143092000Y-84503000D03*
X143092000Y-83853000D03*
%TD*%
D11*
%TO.C,BULKCAP1*%
X151440000Y-82675000D03*
D14*
X148900000Y-82675000D03*
%TD*%
D12*
%TO.C,0.1uF*%
X148500000Y-86925000D03*
X148500000Y-85275000D03*
%TD*%
%TO.C,0.022uF*%
X145300000Y-84100000D03*
X145300000Y-82450000D03*
%TD*%
D11*
%TO.C,MAGN*%
X139568000Y-93268800D03*
D14*
X142108000Y-93268800D03*
%TD*%
M02*
