M48
; DRILL file {KiCad 7.0.1} date Sat May  6 21:58:20 2023
; FORMAT={-:-/ absolute / metric / decimal}
; #@! TF.CreationDate,2023-05-06T21:58:20-07:00
; #@! TF.GenerationSoftware,Kicad,Pcbnew,7.0.1
; #@! TF.FileFunction,Plated,1,2,PTH
FMAT,2
METRIC
; #@! TA.AperFunction,Plated,PTH,ComponentDrill
T1C0.250
; #@! TA.AperFunction,Plated,PTH,ViaDrill
T2C0.400
; #@! TA.AperFunction,Plated,PTH,ComponentDrill
T3C1.000
%
G90
G05
T1
X139.192Y-84.328
X139.192Y-85.528
X139.192Y-86.728
X139.192Y-87.928
X140.192Y-84.328
X140.192Y-85.528
X140.192Y-86.728
X140.192Y-87.928
X141.192Y-84.328
X141.192Y-85.528
X141.192Y-86.728
X141.192Y-87.928
T2
X134.075Y-83.075
X134.075Y-87.02
X134.874Y-85.877
X135.225Y-83.1
X135.3Y-91.3
X135.475Y-88.2
X137.8Y-82.4
X139.1Y-89.825
X140.55Y-91.15
X141.55Y-91.15
X142.85Y-89.3
X142.85Y-90.2
X143.0Y-82.6
X146.9Y-83.475
X148.0Y-91.1
X148.0Y-92.2
T3
X130.556Y-79.248
X130.556Y-81.788
X130.556Y-84.328
X130.556Y-86.868
X130.556Y-89.408
X130.556Y-91.948
X130.556Y-94.488
X139.568Y-93.269
X142.108Y-93.269
X148.9Y-82.675
X151.384Y-88.392
X151.44Y-82.675
T0
M30
