%TF.GenerationSoftware,KiCad,Pcbnew,7.0.1*%
%TF.CreationDate,2023-05-06T21:58:45-07:00*%
%TF.ProjectId,MAGNETORQUERS,4d41474e-4554-44f5-9251-554552532e6b,rev?*%
%TF.SameCoordinates,Original*%
%TF.FileFunction,Drillmap*%
%TF.FilePolarity,Positive*%
%FSLAX45Y45*%
G04 Gerber Fmt 4.5, Leading zero omitted, Abs format (unit mm)*
G04 Created by KiCad (PCBNEW 7.0.1) date 2023-05-06 21:58:45*
%MOMM*%
%LPD*%
G01*
G04 APERTURE LIST*
%ADD10C,0.100000*%
%ADD11C,0.200000*%
G04 APERTURE END LIST*
D10*
X12420000Y-7635000D02*
X15660000Y-7635000D01*
X15660000Y-9660000D01*
X12420000Y-9660000D01*
X12420000Y-7635000D01*
D11*
X12662619Y-9977524D02*
X12662619Y-9777524D01*
X12662619Y-9777524D02*
X12710238Y-9777524D01*
X12710238Y-9777524D02*
X12738809Y-9787048D01*
X12738809Y-9787048D02*
X12757857Y-9806095D01*
X12757857Y-9806095D02*
X12767381Y-9825143D01*
X12767381Y-9825143D02*
X12776905Y-9863238D01*
X12776905Y-9863238D02*
X12776905Y-9891810D01*
X12776905Y-9891810D02*
X12767381Y-9929905D01*
X12767381Y-9929905D02*
X12757857Y-9948952D01*
X12757857Y-9948952D02*
X12738809Y-9968000D01*
X12738809Y-9968000D02*
X12710238Y-9977524D01*
X12710238Y-9977524D02*
X12662619Y-9977524D01*
X12862619Y-9977524D02*
X12862619Y-9844190D01*
X12862619Y-9882286D02*
X12872143Y-9863238D01*
X12872143Y-9863238D02*
X12881667Y-9853714D01*
X12881667Y-9853714D02*
X12900714Y-9844190D01*
X12900714Y-9844190D02*
X12919762Y-9844190D01*
X12986428Y-9977524D02*
X12986428Y-9844190D01*
X12986428Y-9777524D02*
X12976905Y-9787048D01*
X12976905Y-9787048D02*
X12986428Y-9796571D01*
X12986428Y-9796571D02*
X12995952Y-9787048D01*
X12995952Y-9787048D02*
X12986428Y-9777524D01*
X12986428Y-9777524D02*
X12986428Y-9796571D01*
X13110238Y-9977524D02*
X13091190Y-9968000D01*
X13091190Y-9968000D02*
X13081667Y-9948952D01*
X13081667Y-9948952D02*
X13081667Y-9777524D01*
X13215000Y-9977524D02*
X13195952Y-9968000D01*
X13195952Y-9968000D02*
X13186428Y-9948952D01*
X13186428Y-9948952D02*
X13186428Y-9777524D01*
X13443571Y-9977524D02*
X13443571Y-9777524D01*
X13443571Y-9777524D02*
X13510238Y-9920381D01*
X13510238Y-9920381D02*
X13576905Y-9777524D01*
X13576905Y-9777524D02*
X13576905Y-9977524D01*
X13757857Y-9977524D02*
X13757857Y-9872762D01*
X13757857Y-9872762D02*
X13748333Y-9853714D01*
X13748333Y-9853714D02*
X13729286Y-9844190D01*
X13729286Y-9844190D02*
X13691190Y-9844190D01*
X13691190Y-9844190D02*
X13672143Y-9853714D01*
X13757857Y-9968000D02*
X13738809Y-9977524D01*
X13738809Y-9977524D02*
X13691190Y-9977524D01*
X13691190Y-9977524D02*
X13672143Y-9968000D01*
X13672143Y-9968000D02*
X13662619Y-9948952D01*
X13662619Y-9948952D02*
X13662619Y-9929905D01*
X13662619Y-9929905D02*
X13672143Y-9910857D01*
X13672143Y-9910857D02*
X13691190Y-9901333D01*
X13691190Y-9901333D02*
X13738809Y-9901333D01*
X13738809Y-9901333D02*
X13757857Y-9891810D01*
X13853095Y-9844190D02*
X13853095Y-10044190D01*
X13853095Y-9853714D02*
X13872143Y-9844190D01*
X13872143Y-9844190D02*
X13910238Y-9844190D01*
X13910238Y-9844190D02*
X13929286Y-9853714D01*
X13929286Y-9853714D02*
X13938809Y-9863238D01*
X13938809Y-9863238D02*
X13948333Y-9882286D01*
X13948333Y-9882286D02*
X13948333Y-9939429D01*
X13948333Y-9939429D02*
X13938809Y-9958476D01*
X13938809Y-9958476D02*
X13929286Y-9968000D01*
X13929286Y-9968000D02*
X13910238Y-9977524D01*
X13910238Y-9977524D02*
X13872143Y-9977524D01*
X13872143Y-9977524D02*
X13853095Y-9968000D01*
X14034048Y-9958476D02*
X14043571Y-9968000D01*
X14043571Y-9968000D02*
X14034048Y-9977524D01*
X14034048Y-9977524D02*
X14024524Y-9968000D01*
X14024524Y-9968000D02*
X14034048Y-9958476D01*
X14034048Y-9958476D02*
X14034048Y-9977524D01*
X14034048Y-9853714D02*
X14043571Y-9863238D01*
X14043571Y-9863238D02*
X14034048Y-9872762D01*
X14034048Y-9872762D02*
X14024524Y-9863238D01*
X14024524Y-9863238D02*
X14034048Y-9853714D01*
X14034048Y-9853714D02*
X14034048Y-9872762D01*
M02*
