G04 #@! TF.GenerationSoftware,KiCad,Pcbnew,7.0.1*
G04 #@! TF.CreationDate,2023-05-06T21:57:30-07:00*
G04 #@! TF.ProjectId,MAGNETORQUERS,4d41474e-4554-44f5-9251-554552532e6b,rev?*
G04 #@! TF.SameCoordinates,Original*
G04 #@! TF.FileFunction,Copper,L2,Bot*
G04 #@! TF.FilePolarity,Positive*
%FSLAX46Y46*%
G04 Gerber Fmt 4.6, Leading zero omitted, Abs format (unit mm)*
G04 Created by KiCad (PCBNEW 7.0.1) date 2023-05-06 21:57:30*
%MOMM*%
%LPD*%
G01*
G04 APERTURE LIST*
G04 #@! TA.AperFunction,ComponentPad*
%ADD10R,1.700000X1.700000*%
G04 #@! TD*
G04 #@! TA.AperFunction,ComponentPad*
%ADD11O,1.700000X1.700000*%
G04 #@! TD*
G04 #@! TA.AperFunction,ComponentPad*
%ADD12C,0.450000*%
G04 #@! TD*
G04 #@! TA.AperFunction,ViaPad*
%ADD13C,0.800000*%
G04 #@! TD*
G04 #@! TA.AperFunction,Conductor*
%ADD14C,0.250000*%
G04 #@! TD*
G04 APERTURE END LIST*
D10*
X151384000Y-88392000D03*
X130556000Y-79248000D03*
D11*
X130556000Y-81788000D03*
X130556000Y-84328000D03*
X130556000Y-86868000D03*
X130556000Y-89408000D03*
X130556000Y-91948000D03*
X130556000Y-94488000D03*
D12*
X139192000Y-84328000D03*
X139192000Y-85528000D03*
X139192000Y-86728000D03*
X139192000Y-87928000D03*
X140192000Y-84328000D03*
X140192000Y-85528000D03*
X140192000Y-86728000D03*
X140192000Y-87928000D03*
X141192000Y-84328000D03*
X141192000Y-85528000D03*
X141192000Y-86728000D03*
X141192000Y-87928000D03*
D10*
X151440000Y-82675000D03*
D11*
X148900000Y-82675000D03*
D10*
X139568000Y-93268800D03*
D11*
X142108000Y-93268800D03*
D13*
X140550000Y-91150000D03*
X141550000Y-91150000D03*
X137800000Y-82400000D03*
X135300000Y-91300000D03*
X142850000Y-90200000D03*
X135475000Y-88200000D03*
X142850000Y-89300000D03*
X148000000Y-92200000D03*
X146900000Y-83475000D03*
X148000000Y-91100000D03*
X143000000Y-82600000D03*
X134075000Y-87020400D03*
X134075000Y-83075000D03*
X139100000Y-89825000D03*
X134874000Y-85877500D03*
X135225000Y-83100000D03*
D14*
X134075000Y-87020400D02*
X134075000Y-83075000D01*
X135164000Y-89825000D02*
X139100000Y-89825000D01*
X134075000Y-87020400D02*
X134075000Y-88736000D01*
X134075000Y-88736000D02*
X135164000Y-89825000D01*
X135225000Y-83100000D02*
X135225000Y-85526500D01*
X135225000Y-85526500D02*
X134874000Y-85877500D01*
G04 #@! TA.AperFunction,Conductor*
G36*
X156537500Y-76367113D02*
G01*
X156582887Y-76412500D01*
X156599500Y-76474500D01*
X156599500Y-96475500D01*
X156582887Y-96537500D01*
X156537500Y-96582887D01*
X156475500Y-96599500D01*
X124324500Y-96599500D01*
X124262500Y-96582887D01*
X124217113Y-96537500D01*
X124200500Y-96475500D01*
X124200500Y-94166669D01*
X138217500Y-94166669D01*
X138223909Y-94226284D01*
X138249056Y-94293706D01*
X138274204Y-94361131D01*
X138360454Y-94476346D01*
X138475669Y-94562596D01*
X138610517Y-94612891D01*
X138670127Y-94619300D01*
X140465872Y-94619299D01*
X140525483Y-94612891D01*
X140660331Y-94562596D01*
X140775546Y-94476346D01*
X140861796Y-94361131D01*
X140910810Y-94229716D01*
X140945789Y-94179337D01*
X141000634Y-94151884D01*
X141061927Y-94154073D01*
X141114673Y-94185368D01*
X141236599Y-94307295D01*
X141430170Y-94442835D01*
X141644337Y-94542703D01*
X141872592Y-94603863D01*
X142108000Y-94624459D01*
X142343408Y-94603863D01*
X142571663Y-94542703D01*
X142785830Y-94442835D01*
X142979401Y-94307295D01*
X143146495Y-94140201D01*
X143282035Y-93946630D01*
X143381903Y-93732463D01*
X143443063Y-93504208D01*
X143463659Y-93268800D01*
X143443063Y-93033392D01*
X143381903Y-92805137D01*
X143282035Y-92590971D01*
X143146495Y-92397399D01*
X142979401Y-92230305D01*
X142785830Y-92094765D01*
X142571663Y-91994897D01*
X142510502Y-91978509D01*
X142343407Y-91933736D01*
X142108000Y-91913140D01*
X141872592Y-91933736D01*
X141644336Y-91994897D01*
X141430170Y-92094765D01*
X141236601Y-92230303D01*
X141114673Y-92352231D01*
X141061926Y-92383526D01*
X141000634Y-92385715D01*
X140945789Y-92358262D01*
X140910810Y-92307882D01*
X140903658Y-92288707D01*
X140861796Y-92176469D01*
X140775546Y-92061254D01*
X140660331Y-91975004D01*
X140525483Y-91924709D01*
X140465873Y-91918300D01*
X140465869Y-91918300D01*
X138670130Y-91918300D01*
X138610515Y-91924709D01*
X138475669Y-91975004D01*
X138360454Y-92061254D01*
X138274204Y-92176468D01*
X138223909Y-92311316D01*
X138217500Y-92370930D01*
X138217500Y-94166669D01*
X124200500Y-94166669D01*
X124200500Y-91947999D01*
X129200340Y-91947999D01*
X129220936Y-92183407D01*
X129254289Y-92307882D01*
X129282097Y-92411663D01*
X129381965Y-92625830D01*
X129517505Y-92819401D01*
X129684599Y-92986495D01*
X129878170Y-93122035D01*
X130092337Y-93221903D01*
X130320592Y-93283063D01*
X130556000Y-93303659D01*
X130791408Y-93283063D01*
X131019663Y-93221903D01*
X131233830Y-93122035D01*
X131427401Y-92986495D01*
X131594495Y-92819401D01*
X131730035Y-92625830D01*
X131829903Y-92411663D01*
X131891063Y-92183408D01*
X131911659Y-91948000D01*
X131891063Y-91712592D01*
X131829903Y-91484337D01*
X131730035Y-91270171D01*
X131594495Y-91076599D01*
X131427401Y-90909505D01*
X131241839Y-90779573D01*
X131202976Y-90735257D01*
X131188965Y-90678000D01*
X131202976Y-90620743D01*
X131241839Y-90576426D01*
X131427401Y-90446495D01*
X131594495Y-90279401D01*
X131730035Y-90085830D01*
X131829903Y-89871663D01*
X131891063Y-89643408D01*
X131911659Y-89408000D01*
X131891063Y-89172592D01*
X131829903Y-88944337D01*
X131730035Y-88730171D01*
X131594495Y-88536599D01*
X131427401Y-88369505D01*
X131241839Y-88239573D01*
X131202975Y-88195257D01*
X131188964Y-88138000D01*
X131202975Y-88080743D01*
X131241839Y-88036426D01*
X131427401Y-87906495D01*
X131594495Y-87739401D01*
X131730035Y-87545830D01*
X131829903Y-87331663D01*
X131891063Y-87103408D01*
X131898325Y-87020400D01*
X133169540Y-87020400D01*
X133189326Y-87208657D01*
X133247820Y-87388684D01*
X133342464Y-87552613D01*
X133342467Y-87552616D01*
X133417652Y-87636117D01*
X133441264Y-87674649D01*
X133449500Y-87719087D01*
X133449500Y-88653256D01*
X133447235Y-88673762D01*
X133449439Y-88743873D01*
X133449500Y-88747768D01*
X133449500Y-88775349D01*
X133450003Y-88779334D01*
X133450918Y-88790967D01*
X133452290Y-88834626D01*
X133457879Y-88853860D01*
X133461825Y-88872916D01*
X133464335Y-88892792D01*
X133480414Y-88933404D01*
X133484197Y-88944451D01*
X133496382Y-88986391D01*
X133506580Y-89003635D01*
X133515136Y-89021100D01*
X133522514Y-89039732D01*
X133522515Y-89039733D01*
X133548180Y-89075059D01*
X133554593Y-89084822D01*
X133576826Y-89122416D01*
X133576829Y-89122419D01*
X133576830Y-89122420D01*
X133590995Y-89136585D01*
X133603627Y-89151375D01*
X133615406Y-89167587D01*
X133649058Y-89195426D01*
X133657699Y-89203289D01*
X134663197Y-90208787D01*
X134676098Y-90224889D01*
X134678212Y-90226874D01*
X134678214Y-90226877D01*
X134725561Y-90271339D01*
X134727240Y-90272916D01*
X134730036Y-90275626D01*
X134749530Y-90295120D01*
X134752704Y-90297582D01*
X134761568Y-90305153D01*
X134793418Y-90335062D01*
X134803914Y-90340832D01*
X134810974Y-90344714D01*
X134827231Y-90355392D01*
X134843064Y-90367674D01*
X134859185Y-90374649D01*
X134883156Y-90385023D01*
X134893643Y-90390160D01*
X134931908Y-90411197D01*
X134951316Y-90416180D01*
X134969710Y-90422478D01*
X134988105Y-90430438D01*
X135031254Y-90437271D01*
X135042680Y-90439638D01*
X135058222Y-90443629D01*
X135084980Y-90450500D01*
X135084981Y-90450500D01*
X135105016Y-90450500D01*
X135124413Y-90452026D01*
X135144196Y-90455160D01*
X135187674Y-90451050D01*
X135199344Y-90450500D01*
X138396253Y-90450500D01*
X138446688Y-90461220D01*
X138488401Y-90491526D01*
X138494129Y-90497888D01*
X138647270Y-90609151D01*
X138647271Y-90609151D01*
X138647272Y-90609152D01*
X138820197Y-90686144D01*
X139005352Y-90725500D01*
X139005354Y-90725500D01*
X139194646Y-90725500D01*
X139194648Y-90725500D01*
X139318083Y-90699262D01*
X139379803Y-90686144D01*
X139552730Y-90609151D01*
X139705871Y-90497888D01*
X139832533Y-90357216D01*
X139927179Y-90193284D01*
X139985674Y-90013256D01*
X140005460Y-89825000D01*
X139985674Y-89636744D01*
X139936152Y-89484331D01*
X139927179Y-89456715D01*
X139832533Y-89292783D01*
X139829909Y-89289869D01*
X150033500Y-89289869D01*
X150039909Y-89349483D01*
X150090204Y-89484331D01*
X150176454Y-89599546D01*
X150291669Y-89685796D01*
X150426517Y-89736091D01*
X150486127Y-89742500D01*
X152281872Y-89742499D01*
X152341483Y-89736091D01*
X152476331Y-89685796D01*
X152591546Y-89599546D01*
X152677796Y-89484331D01*
X152728091Y-89349483D01*
X152734500Y-89289873D01*
X152734499Y-87494128D01*
X152728091Y-87434517D01*
X152677796Y-87299669D01*
X152591546Y-87184454D01*
X152476331Y-87098204D01*
X152341483Y-87047909D01*
X152281873Y-87041500D01*
X152281869Y-87041500D01*
X150486130Y-87041500D01*
X150426515Y-87047909D01*
X150291669Y-87098204D01*
X150176454Y-87184454D01*
X150090204Y-87299668D01*
X150039909Y-87434516D01*
X150033500Y-87494130D01*
X150033500Y-89289869D01*
X139829909Y-89289869D01*
X139705870Y-89152110D01*
X139552730Y-89040848D01*
X139379802Y-88963855D01*
X139194648Y-88924500D01*
X139194646Y-88924500D01*
X139005354Y-88924500D01*
X139005352Y-88924500D01*
X138820197Y-88963855D01*
X138647272Y-89040847D01*
X138586746Y-89084822D01*
X138494129Y-89152112D01*
X138488401Y-89158473D01*
X138446688Y-89188780D01*
X138396253Y-89199500D01*
X135474452Y-89199500D01*
X135426999Y-89190061D01*
X135386771Y-89163181D01*
X134736819Y-88513228D01*
X134709939Y-88473000D01*
X134700500Y-88425547D01*
X134700500Y-87719087D01*
X134708736Y-87674649D01*
X134732347Y-87636117D01*
X134807533Y-87552616D01*
X134902179Y-87388684D01*
X134960674Y-87208656D01*
X134980460Y-87020400D01*
X134966951Y-86891874D01*
X134975301Y-86832467D01*
X135010567Y-86783928D01*
X135064492Y-86757628D01*
X135153802Y-86738645D01*
X135326730Y-86661651D01*
X135479870Y-86550389D01*
X135606533Y-86409716D01*
X135701179Y-86245784D01*
X135719249Y-86190170D01*
X135759674Y-86065756D01*
X135779460Y-85877500D01*
X135778123Y-85864781D01*
X135779890Y-85827314D01*
X135792781Y-85792088D01*
X135811197Y-85758592D01*
X135816175Y-85739199D01*
X135822481Y-85720782D01*
X135824018Y-85717228D01*
X135830438Y-85702396D01*
X135837272Y-85659245D01*
X135839635Y-85647831D01*
X135850500Y-85605519D01*
X135850500Y-85585484D01*
X135852027Y-85566085D01*
X135855160Y-85546304D01*
X135851050Y-85502825D01*
X135850500Y-85491156D01*
X135850500Y-83798687D01*
X135858736Y-83754249D01*
X135882347Y-83715717D01*
X135957533Y-83632216D01*
X135971969Y-83607213D01*
X135991797Y-83572869D01*
X150089500Y-83572869D01*
X150093193Y-83607216D01*
X150095909Y-83632483D01*
X150146204Y-83767331D01*
X150232454Y-83882546D01*
X150347669Y-83968796D01*
X150482517Y-84019091D01*
X150542127Y-84025500D01*
X152337872Y-84025499D01*
X152397483Y-84019091D01*
X152532331Y-83968796D01*
X152647546Y-83882546D01*
X152733796Y-83767331D01*
X152784091Y-83632483D01*
X152790500Y-83572873D01*
X152790499Y-81777128D01*
X152784091Y-81717517D01*
X152733796Y-81582669D01*
X152647546Y-81467454D01*
X152532331Y-81381204D01*
X152397483Y-81330909D01*
X152337873Y-81324500D01*
X152337869Y-81324500D01*
X150542130Y-81324500D01*
X150482515Y-81330909D01*
X150347669Y-81381204D01*
X150232454Y-81467454D01*
X150146204Y-81582668D01*
X150095909Y-81717516D01*
X150089500Y-81777130D01*
X150089500Y-83572869D01*
X135991797Y-83572869D01*
X136052179Y-83468284D01*
X136110268Y-83289505D01*
X136110674Y-83288256D01*
X136130460Y-83100000D01*
X136110674Y-82911744D01*
X136052179Y-82731716D01*
X136052179Y-82731715D01*
X135957533Y-82567783D01*
X135830870Y-82427110D01*
X135677730Y-82315848D01*
X135504802Y-82238855D01*
X135319648Y-82199500D01*
X135319646Y-82199500D01*
X135130354Y-82199500D01*
X135130352Y-82199500D01*
X134945197Y-82238855D01*
X134772271Y-82315847D01*
X134740087Y-82339230D01*
X134692983Y-82360201D01*
X134641422Y-82360200D01*
X134594319Y-82339228D01*
X134527730Y-82290849D01*
X134527729Y-82290848D01*
X134527727Y-82290847D01*
X134354802Y-82213855D01*
X134169648Y-82174500D01*
X134169646Y-82174500D01*
X133980354Y-82174500D01*
X133980352Y-82174500D01*
X133795197Y-82213855D01*
X133622269Y-82290848D01*
X133469129Y-82402110D01*
X133342466Y-82542783D01*
X133247820Y-82706715D01*
X133189326Y-82886742D01*
X133169540Y-83075000D01*
X133189326Y-83263257D01*
X133247820Y-83443284D01*
X133342464Y-83607213D01*
X133342467Y-83607216D01*
X133417652Y-83690717D01*
X133441264Y-83729249D01*
X133449500Y-83773687D01*
X133449500Y-86321713D01*
X133441264Y-86366151D01*
X133417652Y-86404682D01*
X133384545Y-86441451D01*
X133342464Y-86488186D01*
X133247820Y-86652115D01*
X133189326Y-86832142D01*
X133169540Y-87020400D01*
X131898325Y-87020400D01*
X131911659Y-86868000D01*
X131904303Y-86783928D01*
X131891063Y-86632592D01*
X131831344Y-86409716D01*
X131829903Y-86404337D01*
X131730035Y-86190171D01*
X131594495Y-85996599D01*
X131427401Y-85829505D01*
X131241839Y-85699573D01*
X131202975Y-85655257D01*
X131188964Y-85598000D01*
X131202975Y-85540743D01*
X131241839Y-85496426D01*
X131427401Y-85366495D01*
X131594495Y-85199401D01*
X131730035Y-85005830D01*
X131829903Y-84791663D01*
X131891063Y-84563408D01*
X131911659Y-84328000D01*
X131891063Y-84092592D01*
X131829903Y-83864337D01*
X131730035Y-83650171D01*
X131594495Y-83456599D01*
X131427401Y-83289505D01*
X131241839Y-83159573D01*
X131202975Y-83115257D01*
X131188964Y-83058000D01*
X131202975Y-83000743D01*
X131241839Y-82956426D01*
X131427401Y-82826495D01*
X131594495Y-82659401D01*
X131730035Y-82465830D01*
X131829903Y-82251663D01*
X131891063Y-82023408D01*
X131911659Y-81788000D01*
X131891063Y-81552592D01*
X131829903Y-81324337D01*
X131730035Y-81110171D01*
X131594495Y-80916599D01*
X131472568Y-80794672D01*
X131441273Y-80741927D01*
X131439084Y-80680634D01*
X131466537Y-80625789D01*
X131516916Y-80590810D01*
X131648331Y-80541796D01*
X131763546Y-80455546D01*
X131849796Y-80340331D01*
X131900091Y-80205483D01*
X131906500Y-80145873D01*
X131906499Y-78350128D01*
X131900091Y-78290517D01*
X131849796Y-78155669D01*
X131763546Y-78040454D01*
X131648331Y-77954204D01*
X131513483Y-77903909D01*
X131453873Y-77897500D01*
X131453869Y-77897500D01*
X129658130Y-77897500D01*
X129598515Y-77903909D01*
X129463669Y-77954204D01*
X129348454Y-78040454D01*
X129262204Y-78155668D01*
X129211909Y-78290516D01*
X129205500Y-78350130D01*
X129205500Y-80145869D01*
X129211909Y-80205483D01*
X129262204Y-80340331D01*
X129348454Y-80455546D01*
X129463669Y-80541796D01*
X129575907Y-80583658D01*
X129595082Y-80590810D01*
X129645462Y-80625789D01*
X129672915Y-80680634D01*
X129670726Y-80741926D01*
X129639431Y-80794673D01*
X129517503Y-80916601D01*
X129381965Y-81110170D01*
X129282097Y-81324336D01*
X129220936Y-81552592D01*
X129200340Y-81787999D01*
X129220936Y-82023407D01*
X129261421Y-82174500D01*
X129282097Y-82251663D01*
X129381965Y-82465830D01*
X129517505Y-82659401D01*
X129684599Y-82826495D01*
X129870160Y-82956426D01*
X129909024Y-83000743D01*
X129923035Y-83058000D01*
X129909024Y-83115257D01*
X129870158Y-83159575D01*
X129686382Y-83288257D01*
X129684595Y-83289508D01*
X129517505Y-83456598D01*
X129381965Y-83650170D01*
X129282097Y-83864336D01*
X129220936Y-84092592D01*
X129200340Y-84327999D01*
X129220936Y-84563407D01*
X129265709Y-84730502D01*
X129282097Y-84791663D01*
X129381965Y-85005830D01*
X129517505Y-85199401D01*
X129684599Y-85366495D01*
X129870160Y-85496426D01*
X129909024Y-85540743D01*
X129923035Y-85598000D01*
X129909024Y-85655257D01*
X129870159Y-85699575D01*
X129684595Y-85829508D01*
X129517505Y-85996598D01*
X129381965Y-86190170D01*
X129282097Y-86404336D01*
X129220936Y-86632592D01*
X129200340Y-86868000D01*
X129220936Y-87103407D01*
X129242653Y-87184454D01*
X129282097Y-87331663D01*
X129381965Y-87545830D01*
X129517505Y-87739401D01*
X129684599Y-87906495D01*
X129870160Y-88036426D01*
X129909024Y-88080743D01*
X129923035Y-88138000D01*
X129909024Y-88195257D01*
X129870159Y-88239575D01*
X129684595Y-88369508D01*
X129517505Y-88536598D01*
X129381965Y-88730170D01*
X129282097Y-88944336D01*
X129220936Y-89172592D01*
X129200340Y-89408000D01*
X129220936Y-89643407D01*
X129245771Y-89736091D01*
X129282097Y-89871663D01*
X129381965Y-90085830D01*
X129517505Y-90279401D01*
X129684599Y-90446495D01*
X129870160Y-90576426D01*
X129909024Y-90620743D01*
X129923035Y-90678000D01*
X129909024Y-90735257D01*
X129870159Y-90779575D01*
X129684595Y-90909508D01*
X129517505Y-91076598D01*
X129381965Y-91270170D01*
X129282097Y-91484336D01*
X129220936Y-91712592D01*
X129200340Y-91947999D01*
X124200500Y-91947999D01*
X124200500Y-76474500D01*
X124217113Y-76412500D01*
X124262500Y-76367113D01*
X124324500Y-76350500D01*
X156475500Y-76350500D01*
X156537500Y-76367113D01*
G37*
G04 #@! TD.AperFunction*
M02*
