%TF.GenerationSoftware,KiCad,Pcbnew,(6.0.5-0)*%
%TF.CreationDate,2023-04-24T20:53:51-07:00*%
%TF.ProjectId,Magnetometer_Breakout_IIS2MDCTR,4d61676e-6574-46f6-9d65-7465725f4272,rev?*%
%TF.SameCoordinates,Original*%
%TF.FileFunction,Copper,L1,Top*%
%TF.FilePolarity,Positive*%
%FSLAX46Y46*%
G04 Gerber Fmt 4.6, Leading zero omitted, Abs format (unit mm)*
G04 Created by KiCad (PCBNEW (6.0.5-0)) date 2023-04-24 20:53:51*
%MOMM*%
%LPD*%
G01*
G04 APERTURE LIST*
G04 Aperture macros list*
%AMRoundRect*
0 Rectangle with rounded corners*
0 $1 Rounding radius*
0 $2 $3 $4 $5 $6 $7 $8 $9 X,Y pos of 4 corners*
0 Add a 4 corners polygon primitive as box body*
4,1,4,$2,$3,$4,$5,$6,$7,$8,$9,$2,$3,0*
0 Add four circle primitives for the rounded corners*
1,1,$1+$1,$2,$3*
1,1,$1+$1,$4,$5*
1,1,$1+$1,$6,$7*
1,1,$1+$1,$8,$9*
0 Add four rect primitives between the rounded corners*
20,1,$1+$1,$2,$3,$4,$5,0*
20,1,$1+$1,$4,$5,$6,$7,0*
20,1,$1+$1,$6,$7,$8,$9,0*
20,1,$1+$1,$8,$9,$2,$3,0*%
G04 Aperture macros list end*
%TA.AperFunction,SMDPad,CuDef*%
%ADD10R,0.375000X0.350000*%
%TD*%
%TA.AperFunction,SMDPad,CuDef*%
%ADD11R,0.350000X0.375000*%
%TD*%
%TA.AperFunction,ComponentPad*%
%ADD12R,1.700000X1.700000*%
%TD*%
%TA.AperFunction,ComponentPad*%
%ADD13O,1.700000X1.700000*%
%TD*%
%TA.AperFunction,SMDPad,CuDef*%
%ADD14RoundRect,0.140000X-0.170000X0.140000X-0.170000X-0.140000X0.170000X-0.140000X0.170000X0.140000X0*%
%TD*%
%TA.AperFunction,SMDPad,CuDef*%
%ADD15RoundRect,0.140000X-0.140000X-0.170000X0.140000X-0.170000X0.140000X0.170000X-0.140000X0.170000X0*%
%TD*%
%TA.AperFunction,SMDPad,CuDef*%
%ADD16RoundRect,0.140000X0.140000X0.170000X-0.140000X0.170000X-0.140000X-0.170000X0.140000X-0.170000X0*%
%TD*%
%TA.AperFunction,ViaPad*%
%ADD17C,0.800000*%
%TD*%
%TA.AperFunction,Conductor*%
%ADD18C,0.250000*%
%TD*%
%TA.AperFunction,Conductor*%
%ADD19C,0.350000*%
%TD*%
G04 APERTURE END LIST*
D10*
%TO.P,U1,1,SCL/SPC*%
%TO.N,SCL*%
X111802500Y-84085000D03*
%TO.P,U1,2,NC*%
%TO.N,unconnected-(U1-Pad2)*%
X111802500Y-84585000D03*
%TO.P,U1,3,CS*%
%TO.N,CS*%
X111802500Y-85085000D03*
%TO.P,U1,4,SDA/SDI/SDO*%
%TO.N,SDA*%
X111802500Y-85585000D03*
D11*
%TO.P,U1,5,C1*%
%TO.N,Net-(C1-Pad1)*%
X112315000Y-85597500D03*
%TO.P,U1,6,GND*%
%TO.N,GND*%
X112815000Y-85597500D03*
D10*
%TO.P,U1,7,INT/DRDY*%
%TO.N,DRDY*%
X113327500Y-85585000D03*
%TO.P,U1,8,GND*%
%TO.N,GND*%
X113327500Y-85085000D03*
%TO.P,U1,9,VDD*%
%TO.N,VDD*%
X113327500Y-84585000D03*
%TO.P,U1,10,VDD_IO*%
%TO.N,VDDIO*%
X113327500Y-84085000D03*
D11*
%TO.P,U1,11,NC*%
%TO.N,unconnected-(U1-Pad11)*%
X112815000Y-84072500D03*
%TO.P,U1,12,NC*%
%TO.N,unconnected-(U1-Pad12)*%
X112315000Y-84072500D03*
%TD*%
D12*
%TO.P,J1,1,Pin_1*%
%TO.N,GND*%
X106800000Y-77575000D03*
D13*
%TO.P,J1,2,Pin_2*%
%TO.N,VDD*%
X106800000Y-80115000D03*
%TO.P,J1,3,Pin_3*%
%TO.N,SCL*%
X106800000Y-82655000D03*
%TO.P,J1,4,Pin_4*%
%TO.N,SDA*%
X106800000Y-85195000D03*
%TO.P,J1,5,Pin_5*%
%TO.N,DRDY*%
X106800000Y-87735000D03*
%TO.P,J1,6,Pin_6*%
%TO.N,VDDIO*%
X106800000Y-90275000D03*
%TO.P,J1,7,Pin_7*%
%TO.N,CS*%
X106800000Y-92815000D03*
%TD*%
D14*
%TO.P,C2,1*%
%TO.N,VDD*%
X115690000Y-84430000D03*
%TO.P,C2,2*%
%TO.N,GND*%
X115690000Y-85390000D03*
%TD*%
D15*
%TO.P,C1,1*%
%TO.N,Net-(C1-Pad1)*%
X112070000Y-86910000D03*
%TO.P,C1,2*%
%TO.N,GND*%
X113030000Y-86910000D03*
%TD*%
D14*
%TO.P,C3,1*%
%TO.N,VDD*%
X114590000Y-84430000D03*
%TO.P,C3,2*%
%TO.N,GND*%
X114590000Y-85390000D03*
%TD*%
D16*
%TO.P,C4,1*%
%TO.N,VDDIO*%
X113480000Y-82800000D03*
%TO.P,C4,2*%
%TO.N,GND*%
X112520000Y-82800000D03*
%TD*%
D17*
%TO.N,GND*%
X103378000Y-91694000D03*
X111887000Y-87960200D03*
X109550200Y-84683600D03*
X113284000Y-81026000D03*
X103378000Y-78740000D03*
X112268000Y-92710000D03*
X115824000Y-86868000D03*
%TO.N,VDD*%
X114579400Y-83515200D03*
%TO.N,VDDIO*%
X114570000Y-82470000D03*
%TO.N,CS*%
X110670000Y-84859500D03*
%TD*%
D18*
%TO.N,DRDY*%
X113327500Y-85585000D02*
X113327500Y-85897500D01*
X113327500Y-85897500D02*
X113634520Y-86204520D01*
X113634520Y-86204520D02*
X113634520Y-87475480D01*
X107990400Y-88925400D02*
X106800000Y-87735000D01*
X113634520Y-87475480D02*
X112184600Y-88925400D01*
X112184600Y-88925400D02*
X107990400Y-88925400D01*
D19*
%TO.N,VDD*%
X114579400Y-83515200D02*
X114590000Y-83525800D01*
X114590000Y-83525800D02*
X114590000Y-84430000D01*
D18*
%TO.N,Net-(C1-Pad1)*%
X112315000Y-86095000D02*
X112070000Y-86340000D01*
X112315000Y-85597500D02*
X112315000Y-86095000D01*
X112070000Y-86340000D02*
X112070000Y-86910000D01*
%TO.N,GND*%
X112815000Y-86135000D02*
X112815000Y-85597500D01*
X113030000Y-86350000D02*
X112815000Y-86135000D01*
X112985000Y-85085000D02*
X112815000Y-85255000D01*
X114590000Y-85390000D02*
X114170000Y-85390000D01*
X113865000Y-85085000D02*
X113327500Y-85085000D01*
X112815000Y-85255000D02*
X112815000Y-85597500D01*
X114170000Y-85390000D02*
X113865000Y-85085000D01*
X113327500Y-85085000D02*
X112985000Y-85085000D01*
X113030000Y-86910000D02*
X113030000Y-86350000D01*
D19*
%TO.N,VDD*%
X114590000Y-84430000D02*
X113990000Y-84430000D01*
X113835000Y-84585000D02*
X113327500Y-84585000D01*
X115690000Y-84430000D02*
X114590000Y-84430000D01*
X113990000Y-84430000D02*
X113835000Y-84585000D01*
%TO.N,VDDIO*%
X114240000Y-82800000D02*
X114570000Y-82470000D01*
X113480000Y-83480000D02*
X113327500Y-83632500D01*
X113480000Y-82800000D02*
X113480000Y-83480000D01*
X113480000Y-82800000D02*
X114240000Y-82800000D01*
X113327500Y-83632500D02*
X113327500Y-84085000D01*
%TO.N,SCL*%
X111802500Y-84085000D02*
X110247000Y-84085000D01*
X108817000Y-82655000D02*
X106800000Y-82655000D01*
X110247000Y-84085000D02*
X108817000Y-82655000D01*
D18*
%TO.N,CS*%
X110670000Y-84859500D02*
X110895500Y-85085000D01*
X110895500Y-85085000D02*
X111802500Y-85085000D01*
%TO.N,SDA*%
X109207000Y-85585000D02*
X108817000Y-85195000D01*
X108817000Y-85195000D02*
X106800000Y-85195000D01*
X111802500Y-85585000D02*
X109207000Y-85585000D01*
%TD*%
%TA.AperFunction,Conductor*%
%TO.N,GND*%
G36*
X116527621Y-75712502D02*
G01*
X116574114Y-75766158D01*
X116585500Y-75818500D01*
X116585500Y-94615500D01*
X116565498Y-94683621D01*
X116511842Y-94730114D01*
X116459500Y-94741500D01*
X100964500Y-94741500D01*
X100896379Y-94721498D01*
X100849886Y-94667842D01*
X100838500Y-94615500D01*
X100838500Y-92785964D01*
X105691148Y-92785964D01*
X105704424Y-92988522D01*
X105705845Y-92994118D01*
X105705846Y-92994123D01*
X105726119Y-93073945D01*
X105754392Y-93185269D01*
X105756809Y-93190512D01*
X105794010Y-93271208D01*
X105839377Y-93369616D01*
X105956533Y-93535389D01*
X106101938Y-93677035D01*
X106270720Y-93789812D01*
X106276023Y-93792090D01*
X106276026Y-93792092D01*
X106364707Y-93830192D01*
X106457228Y-93869942D01*
X106530244Y-93886464D01*
X106649579Y-93913467D01*
X106649584Y-93913468D01*
X106655216Y-93914742D01*
X106660987Y-93914969D01*
X106660989Y-93914969D01*
X106720756Y-93917317D01*
X106858053Y-93922712D01*
X106958499Y-93908148D01*
X107053231Y-93894413D01*
X107053236Y-93894412D01*
X107058945Y-93893584D01*
X107064409Y-93891729D01*
X107064414Y-93891728D01*
X107245693Y-93830192D01*
X107245698Y-93830190D01*
X107251165Y-93828334D01*
X107428276Y-93729147D01*
X107490934Y-93677035D01*
X107579913Y-93603031D01*
X107584345Y-93599345D01*
X107714147Y-93443276D01*
X107813334Y-93266165D01*
X107815190Y-93260698D01*
X107815192Y-93260693D01*
X107876728Y-93079414D01*
X107876729Y-93079409D01*
X107878584Y-93073945D01*
X107879412Y-93068236D01*
X107879413Y-93068231D01*
X107907179Y-92876727D01*
X107907712Y-92873053D01*
X107909232Y-92815000D01*
X107890658Y-92612859D01*
X107889090Y-92607299D01*
X107837125Y-92423046D01*
X107837124Y-92423044D01*
X107835557Y-92417487D01*
X107824978Y-92396033D01*
X107748331Y-92240609D01*
X107745776Y-92235428D01*
X107624320Y-92072779D01*
X107475258Y-91934987D01*
X107470375Y-91931906D01*
X107470371Y-91931903D01*
X107308464Y-91829748D01*
X107303581Y-91826667D01*
X107115039Y-91751446D01*
X107109379Y-91750320D01*
X107109375Y-91750319D01*
X106921613Y-91712971D01*
X106921610Y-91712971D01*
X106915946Y-91711844D01*
X106910171Y-91711768D01*
X106910167Y-91711768D01*
X106808793Y-91710441D01*
X106712971Y-91709187D01*
X106707274Y-91710166D01*
X106707273Y-91710166D01*
X106518607Y-91742585D01*
X106512910Y-91743564D01*
X106322463Y-91813824D01*
X106148010Y-91917612D01*
X106143670Y-91921418D01*
X106143666Y-91921421D01*
X106123723Y-91938911D01*
X105995392Y-92051455D01*
X105869720Y-92210869D01*
X105867031Y-92215980D01*
X105867029Y-92215983D01*
X105854073Y-92240609D01*
X105775203Y-92390515D01*
X105715007Y-92584378D01*
X105691148Y-92785964D01*
X100838500Y-92785964D01*
X100838500Y-90245964D01*
X105691148Y-90245964D01*
X105704424Y-90448522D01*
X105705845Y-90454118D01*
X105705846Y-90454123D01*
X105726119Y-90533945D01*
X105754392Y-90645269D01*
X105756809Y-90650512D01*
X105794010Y-90731208D01*
X105839377Y-90829616D01*
X105956533Y-90995389D01*
X106101938Y-91137035D01*
X106270720Y-91249812D01*
X106276023Y-91252090D01*
X106276026Y-91252092D01*
X106364707Y-91290192D01*
X106457228Y-91329942D01*
X106530244Y-91346464D01*
X106649579Y-91373467D01*
X106649584Y-91373468D01*
X106655216Y-91374742D01*
X106660987Y-91374969D01*
X106660989Y-91374969D01*
X106720756Y-91377317D01*
X106858053Y-91382712D01*
X106958499Y-91368148D01*
X107053231Y-91354413D01*
X107053236Y-91354412D01*
X107058945Y-91353584D01*
X107064409Y-91351729D01*
X107064414Y-91351728D01*
X107245693Y-91290192D01*
X107245698Y-91290190D01*
X107251165Y-91288334D01*
X107428276Y-91189147D01*
X107490934Y-91137035D01*
X107579913Y-91063031D01*
X107584345Y-91059345D01*
X107714147Y-90903276D01*
X107813334Y-90726165D01*
X107815190Y-90720698D01*
X107815192Y-90720693D01*
X107876728Y-90539414D01*
X107876729Y-90539409D01*
X107878584Y-90533945D01*
X107879412Y-90528236D01*
X107879413Y-90528231D01*
X107907179Y-90336727D01*
X107907712Y-90333053D01*
X107909232Y-90275000D01*
X107890658Y-90072859D01*
X107889090Y-90067299D01*
X107837125Y-89883046D01*
X107837124Y-89883044D01*
X107835557Y-89877487D01*
X107824978Y-89856033D01*
X107748331Y-89700609D01*
X107745776Y-89695428D01*
X107624320Y-89532779D01*
X107475258Y-89394987D01*
X107470375Y-89391906D01*
X107470371Y-89391903D01*
X107308464Y-89289748D01*
X107303581Y-89286667D01*
X107115039Y-89211446D01*
X107109379Y-89210320D01*
X107109375Y-89210319D01*
X106921613Y-89172971D01*
X106921610Y-89172971D01*
X106915946Y-89171844D01*
X106910171Y-89171768D01*
X106910167Y-89171768D01*
X106808793Y-89170441D01*
X106712971Y-89169187D01*
X106707274Y-89170166D01*
X106707273Y-89170166D01*
X106518607Y-89202585D01*
X106512910Y-89203564D01*
X106322463Y-89273824D01*
X106148010Y-89377612D01*
X106143670Y-89381418D01*
X106143666Y-89381421D01*
X106123723Y-89398911D01*
X105995392Y-89511455D01*
X105869720Y-89670869D01*
X105867031Y-89675980D01*
X105867029Y-89675983D01*
X105854073Y-89700609D01*
X105775203Y-89850515D01*
X105715007Y-90044378D01*
X105691148Y-90245964D01*
X100838500Y-90245964D01*
X100838500Y-87705964D01*
X105691148Y-87705964D01*
X105704424Y-87908522D01*
X105705845Y-87914118D01*
X105705846Y-87914123D01*
X105726119Y-87993945D01*
X105754392Y-88105269D01*
X105756809Y-88110512D01*
X105797268Y-88198274D01*
X105839377Y-88289616D01*
X105956533Y-88455389D01*
X106101938Y-88597035D01*
X106270720Y-88709812D01*
X106276023Y-88712090D01*
X106276026Y-88712092D01*
X106451921Y-88787662D01*
X106457228Y-88789942D01*
X106530244Y-88806464D01*
X106649579Y-88833467D01*
X106649584Y-88833468D01*
X106655216Y-88834742D01*
X106660987Y-88834969D01*
X106660989Y-88834969D01*
X106720756Y-88837317D01*
X106858053Y-88842712D01*
X106958499Y-88828148D01*
X107053231Y-88814413D01*
X107053236Y-88814412D01*
X107058945Y-88813584D01*
X107195991Y-88767063D01*
X107266926Y-88764107D01*
X107325587Y-88797281D01*
X107683922Y-89155616D01*
X107699064Y-89174364D01*
X107700179Y-89175589D01*
X107705829Y-89184340D01*
X107714007Y-89190787D01*
X107714009Y-89190789D01*
X107732200Y-89205129D01*
X107736641Y-89209075D01*
X107736703Y-89209002D01*
X107740667Y-89212361D01*
X107744344Y-89216038D01*
X107760092Y-89227292D01*
X107764762Y-89230798D01*
X107805047Y-89262556D01*
X107813681Y-89265588D01*
X107821134Y-89270914D01*
X107870250Y-89285603D01*
X107875892Y-89287436D01*
X107916599Y-89301731D01*
X107924251Y-89304418D01*
X107929816Y-89304900D01*
X107932524Y-89304900D01*
X107935158Y-89305014D01*
X107935256Y-89305043D01*
X107935249Y-89305207D01*
X107935953Y-89305251D01*
X107942178Y-89307113D01*
X107996035Y-89304997D01*
X108000982Y-89304900D01*
X112130680Y-89304900D01*
X112154628Y-89307449D01*
X112156293Y-89307528D01*
X112166476Y-89309720D01*
X112176817Y-89308496D01*
X112199823Y-89305773D01*
X112205754Y-89305423D01*
X112205746Y-89305328D01*
X112210924Y-89304900D01*
X112216124Y-89304900D01*
X112221253Y-89304046D01*
X112221256Y-89304046D01*
X112235165Y-89301731D01*
X112241043Y-89300894D01*
X112281601Y-89296094D01*
X112281602Y-89296094D01*
X112291941Y-89294870D01*
X112300193Y-89290907D01*
X112309226Y-89289404D01*
X112318395Y-89284457D01*
X112318397Y-89284456D01*
X112354332Y-89265066D01*
X112359625Y-89262369D01*
X112398682Y-89243615D01*
X112398686Y-89243612D01*
X112405832Y-89240181D01*
X112410108Y-89236586D01*
X112412031Y-89234663D01*
X112413963Y-89232891D01*
X112414042Y-89232848D01*
X112414155Y-89232972D01*
X112414695Y-89232496D01*
X112420414Y-89229410D01*
X112435042Y-89213586D01*
X112457016Y-89189814D01*
X112460446Y-89186248D01*
X113864736Y-87781958D01*
X113883484Y-87766816D01*
X113884709Y-87765701D01*
X113893460Y-87760051D01*
X113899907Y-87751873D01*
X113899909Y-87751871D01*
X113914249Y-87733680D01*
X113918196Y-87729238D01*
X113918123Y-87729176D01*
X113921481Y-87725213D01*
X113925158Y-87721536D01*
X113928180Y-87717307D01*
X113936379Y-87705834D01*
X113939942Y-87701088D01*
X113965227Y-87669013D01*
X113971676Y-87660833D01*
X113974709Y-87652197D01*
X113980034Y-87644745D01*
X113994724Y-87595625D01*
X113996559Y-87589978D01*
X114010911Y-87549110D01*
X114010911Y-87549108D01*
X114013538Y-87541629D01*
X114014020Y-87536064D01*
X114014020Y-87533357D01*
X114014134Y-87530725D01*
X114014164Y-87530624D01*
X114014327Y-87530631D01*
X114014371Y-87529931D01*
X114016234Y-87523702D01*
X114014117Y-87469830D01*
X114014020Y-87464882D01*
X114014020Y-86258440D01*
X114016569Y-86234492D01*
X114016648Y-86232827D01*
X114018840Y-86222644D01*
X114014893Y-86189297D01*
X114014543Y-86183366D01*
X114014448Y-86183374D01*
X114014020Y-86178196D01*
X114014020Y-86172996D01*
X114010966Y-86154647D01*
X114010851Y-86153955D01*
X114010014Y-86148077D01*
X114005214Y-86107519D01*
X114005214Y-86107518D01*
X114003990Y-86097179D01*
X114000027Y-86088927D01*
X113998524Y-86079894D01*
X113985324Y-86055429D01*
X113974186Y-86034788D01*
X113971489Y-86029495D01*
X113952735Y-85990438D01*
X113952732Y-85990434D01*
X113949301Y-85983288D01*
X113945706Y-85979012D01*
X113943783Y-85977089D01*
X113942011Y-85975157D01*
X113941968Y-85975078D01*
X113942092Y-85974965D01*
X113941616Y-85974425D01*
X113938530Y-85968706D01*
X113898933Y-85932103D01*
X113895368Y-85928674D01*
X113806405Y-85839711D01*
X113772379Y-85777399D01*
X113769500Y-85750616D01*
X113769499Y-85391123D01*
X113769499Y-85384934D01*
X113759745Y-85335892D01*
X113757156Y-85322874D01*
X113757155Y-85322872D01*
X113754734Y-85310699D01*
X113698484Y-85226516D01*
X113695295Y-85224385D01*
X113664114Y-85167283D01*
X113669179Y-85096468D01*
X113711726Y-85039632D01*
X113778246Y-85014821D01*
X113787235Y-85014500D01*
X113802031Y-85014500D01*
X113816841Y-85015373D01*
X113848643Y-85019137D01*
X113857907Y-85017445D01*
X113857908Y-85017445D01*
X113891080Y-85011386D01*
X113903586Y-85009103D01*
X113907489Y-85008453D01*
X113953405Y-85001550D01*
X113962717Y-85000150D01*
X113968924Y-84997169D01*
X113975694Y-84995933D01*
X113984050Y-84991593D01*
X113984057Y-84991590D01*
X114025273Y-84970179D01*
X114028750Y-84968441D01*
X114079141Y-84944243D01*
X114084196Y-84939571D01*
X114090305Y-84936397D01*
X114095121Y-84932283D01*
X114095476Y-84931928D01*
X114101724Y-84927717D01*
X114102904Y-84929467D01*
X114158245Y-84904656D01*
X114232514Y-84917228D01*
X114296573Y-84949868D01*
X114306363Y-84951419D01*
X114306364Y-84951419D01*
X114330869Y-84955300D01*
X114388955Y-84964500D01*
X114589959Y-84964500D01*
X114791044Y-84964499D01*
X114814208Y-84960830D01*
X114873629Y-84951420D01*
X114873631Y-84951419D01*
X114883427Y-84949868D01*
X114892550Y-84945220D01*
X114985935Y-84897637D01*
X114994771Y-84893135D01*
X115001786Y-84886120D01*
X115005301Y-84883566D01*
X115072168Y-84859706D01*
X115079365Y-84859500D01*
X115200635Y-84859500D01*
X115268756Y-84879502D01*
X115274699Y-84883566D01*
X115278214Y-84886120D01*
X115285229Y-84893135D01*
X115396573Y-84949868D01*
X115406363Y-84951419D01*
X115406364Y-84951419D01*
X115430869Y-84955300D01*
X115488955Y-84964500D01*
X115689959Y-84964500D01*
X115891044Y-84964499D01*
X115914208Y-84960830D01*
X115973629Y-84951420D01*
X115973631Y-84951419D01*
X115983427Y-84949868D01*
X115992550Y-84945220D01*
X116047486Y-84917228D01*
X116094771Y-84893135D01*
X116183135Y-84804771D01*
X116239868Y-84693427D01*
X116254500Y-84601045D01*
X116254499Y-84258956D01*
X116245879Y-84204527D01*
X116241420Y-84176371D01*
X116241419Y-84176369D01*
X116239868Y-84166573D01*
X116183135Y-84055229D01*
X116094771Y-83966865D01*
X115983427Y-83910132D01*
X115973637Y-83908581D01*
X115973636Y-83908581D01*
X115947899Y-83904505D01*
X115891045Y-83895500D01*
X115690041Y-83895500D01*
X115488956Y-83895501D01*
X115465792Y-83899170D01*
X115406371Y-83908580D01*
X115406369Y-83908581D01*
X115396573Y-83910132D01*
X115387734Y-83914636D01*
X115387733Y-83914636D01*
X115355876Y-83930868D01*
X115286099Y-83943973D01*
X115220314Y-83917273D01*
X115179407Y-83859246D01*
X115176366Y-83788315D01*
X115181765Y-83771605D01*
X115213406Y-83692895D01*
X115216242Y-83685841D01*
X115227904Y-83603895D01*
X115237981Y-83533091D01*
X115237981Y-83533088D01*
X115238562Y-83529007D01*
X115238707Y-83515200D01*
X115219676Y-83357933D01*
X115163680Y-83209746D01*
X115087754Y-83099272D01*
X115078255Y-83085451D01*
X115078254Y-83085449D01*
X115073953Y-83079192D01*
X115068284Y-83074141D01*
X115065035Y-83070456D01*
X115034991Y-83006130D01*
X115044493Y-82935773D01*
X115057225Y-82913610D01*
X115147755Y-82787624D01*
X115206842Y-82640641D01*
X115229162Y-82483807D01*
X115229307Y-82470000D01*
X115210276Y-82312733D01*
X115154280Y-82164546D01*
X115064553Y-82033992D01*
X114946275Y-81928611D01*
X114938889Y-81924700D01*
X114812988Y-81858039D01*
X114812989Y-81858039D01*
X114806274Y-81854484D01*
X114652633Y-81815892D01*
X114645034Y-81815852D01*
X114645033Y-81815852D01*
X114579181Y-81815507D01*
X114494221Y-81815062D01*
X114486841Y-81816834D01*
X114486839Y-81816834D01*
X114347563Y-81850271D01*
X114347560Y-81850272D01*
X114340184Y-81852043D01*
X114199414Y-81924700D01*
X114080039Y-82028838D01*
X113988950Y-82158444D01*
X113986190Y-82165524D01*
X113969001Y-82209610D01*
X113925620Y-82265812D01*
X113858741Y-82289638D01*
X113794404Y-82276106D01*
X113752262Y-82254633D01*
X113752258Y-82254632D01*
X113743427Y-82250132D01*
X113733637Y-82248581D01*
X113733636Y-82248581D01*
X113707899Y-82244505D01*
X113651045Y-82235500D01*
X113480035Y-82235500D01*
X113308956Y-82235501D01*
X113285792Y-82239170D01*
X113226371Y-82248580D01*
X113226369Y-82248581D01*
X113216573Y-82250132D01*
X113105229Y-82306865D01*
X113016865Y-82395229D01*
X112960132Y-82506573D01*
X112945500Y-82598955D01*
X112945501Y-83001044D01*
X112949170Y-83024208D01*
X112957878Y-83079192D01*
X112960132Y-83093427D01*
X112964635Y-83102264D01*
X112964635Y-83102265D01*
X113016865Y-83204771D01*
X113014026Y-83206218D01*
X113032285Y-83257367D01*
X113016216Y-83326521D01*
X113010146Y-83336217D01*
X112983073Y-83375389D01*
X112979136Y-83381085D01*
X112976841Y-83384297D01*
X112943635Y-83429254D01*
X112941353Y-83435751D01*
X112937441Y-83441412D01*
X112934603Y-83450386D01*
X112934602Y-83450388D01*
X112920608Y-83494640D01*
X112919354Y-83498398D01*
X112902549Y-83546250D01*
X112861105Y-83603895D01*
X112795075Y-83629982D01*
X112783668Y-83630500D01*
X112629498Y-83630501D01*
X112614934Y-83630501D01*
X112608867Y-83631708D01*
X112608863Y-83631708D01*
X112589578Y-83635544D01*
X112540421Y-83635543D01*
X112515067Y-83630500D01*
X112315017Y-83630500D01*
X112114934Y-83630501D01*
X112071090Y-83639221D01*
X112052870Y-83642845D01*
X112052869Y-83642845D01*
X112040699Y-83645266D01*
X112037305Y-83647534D01*
X111997257Y-83655500D01*
X110477095Y-83655500D01*
X110408974Y-83635498D01*
X110388000Y-83618595D01*
X109144014Y-82374609D01*
X109134159Y-82363520D01*
X109120165Y-82345769D01*
X109114334Y-82338372D01*
X109106587Y-82333017D01*
X109106585Y-82333016D01*
X109077237Y-82312733D01*
X109068405Y-82306629D01*
X109065193Y-82304334D01*
X109062528Y-82302365D01*
X109020246Y-82271135D01*
X109013749Y-82268853D01*
X109008088Y-82264941D01*
X108999114Y-82262103D01*
X108999112Y-82262102D01*
X108966385Y-82251753D01*
X108954852Y-82248105D01*
X108951103Y-82246854D01*
X108907280Y-82231464D01*
X108907272Y-82231462D01*
X108898389Y-82228343D01*
X108891510Y-82228073D01*
X108884947Y-82225997D01*
X108878633Y-82225500D01*
X108828515Y-82225500D01*
X108823568Y-82225403D01*
X108769337Y-82223272D01*
X108762494Y-82225087D01*
X108754981Y-82225500D01*
X107898135Y-82225500D01*
X107830014Y-82205498D01*
X107785129Y-82155228D01*
X107748331Y-82080609D01*
X107745776Y-82075428D01*
X107624320Y-81912779D01*
X107475258Y-81774987D01*
X107470375Y-81771906D01*
X107470371Y-81771903D01*
X107308464Y-81669748D01*
X107303581Y-81666667D01*
X107115039Y-81591446D01*
X107109379Y-81590320D01*
X107109375Y-81590319D01*
X106921613Y-81552971D01*
X106921610Y-81552971D01*
X106915946Y-81551844D01*
X106910171Y-81551768D01*
X106910167Y-81551768D01*
X106808793Y-81550441D01*
X106712971Y-81549187D01*
X106707274Y-81550166D01*
X106707273Y-81550166D01*
X106518607Y-81582585D01*
X106512910Y-81583564D01*
X106322463Y-81653824D01*
X106148010Y-81757612D01*
X106143670Y-81761418D01*
X106143666Y-81761421D01*
X106037549Y-81854484D01*
X105995392Y-81891455D01*
X105869720Y-82050869D01*
X105867031Y-82055980D01*
X105867029Y-82055983D01*
X105854073Y-82080609D01*
X105775203Y-82230515D01*
X105715007Y-82424378D01*
X105691148Y-82625964D01*
X105704424Y-82828522D01*
X105705845Y-82834118D01*
X105705846Y-82834123D01*
X105749482Y-83005937D01*
X105754392Y-83025269D01*
X105756809Y-83030512D01*
X105798711Y-83121405D01*
X105839377Y-83209616D01*
X105956533Y-83375389D01*
X106101938Y-83517035D01*
X106270720Y-83629812D01*
X106276023Y-83632090D01*
X106276026Y-83632092D01*
X106379969Y-83676749D01*
X106457228Y-83709942D01*
X106530244Y-83726464D01*
X106649579Y-83753467D01*
X106649584Y-83753468D01*
X106655216Y-83754742D01*
X106660987Y-83754969D01*
X106660989Y-83754969D01*
X106720756Y-83757317D01*
X106858053Y-83762712D01*
X106958499Y-83748148D01*
X107053231Y-83734413D01*
X107053236Y-83734412D01*
X107058945Y-83733584D01*
X107064409Y-83731729D01*
X107064414Y-83731728D01*
X107245693Y-83670192D01*
X107245698Y-83670190D01*
X107251165Y-83668334D01*
X107309718Y-83635543D01*
X107366229Y-83603895D01*
X107428276Y-83569147D01*
X107455807Y-83546250D01*
X107579913Y-83443031D01*
X107584345Y-83439345D01*
X107630120Y-83384307D01*
X107710453Y-83287718D01*
X107710455Y-83287715D01*
X107714147Y-83283276D01*
X107789384Y-83148931D01*
X107840118Y-83099272D01*
X107899316Y-83084500D01*
X108586906Y-83084500D01*
X108655027Y-83104502D01*
X108676001Y-83121405D01*
X109919982Y-84365386D01*
X109929837Y-84376475D01*
X109949666Y-84401628D01*
X109995620Y-84433388D01*
X109998823Y-84435678D01*
X109999247Y-84435991D01*
X110025224Y-84455178D01*
X110068135Y-84511738D01*
X110073655Y-84582519D01*
X110067758Y-84602299D01*
X110052864Y-84640501D01*
X110031406Y-84695537D01*
X110030414Y-84703070D01*
X110030414Y-84703071D01*
X110013314Y-84832964D01*
X110010729Y-84852596D01*
X110015422Y-84895102D01*
X110027020Y-85000150D01*
X110028113Y-85010053D01*
X110030723Y-85017184D01*
X110030723Y-85017186D01*
X110037681Y-85036199D01*
X110042307Y-85107045D01*
X110007897Y-85169145D01*
X109945376Y-85202784D01*
X109919355Y-85205500D01*
X109416384Y-85205500D01*
X109348263Y-85185498D01*
X109327289Y-85168595D01*
X109123478Y-84964784D01*
X109108336Y-84946036D01*
X109107221Y-84944811D01*
X109101571Y-84936060D01*
X109093393Y-84929613D01*
X109093391Y-84929611D01*
X109075200Y-84915271D01*
X109070759Y-84911325D01*
X109070697Y-84911398D01*
X109066733Y-84908039D01*
X109063056Y-84904362D01*
X109047308Y-84893108D01*
X109042638Y-84889602D01*
X109002353Y-84857844D01*
X108993719Y-84854812D01*
X108986266Y-84849486D01*
X108937150Y-84834797D01*
X108931508Y-84832964D01*
X108890633Y-84818610D01*
X108890632Y-84818610D01*
X108883149Y-84815982D01*
X108877584Y-84815500D01*
X108874876Y-84815500D01*
X108872242Y-84815386D01*
X108872144Y-84815357D01*
X108872151Y-84815193D01*
X108871447Y-84815149D01*
X108865222Y-84813287D01*
X108811365Y-84815403D01*
X108806418Y-84815500D01*
X107922792Y-84815500D01*
X107854671Y-84795498D01*
X107809786Y-84745228D01*
X107748331Y-84620609D01*
X107745776Y-84615428D01*
X107624320Y-84452779D01*
X107475258Y-84314987D01*
X107470375Y-84311906D01*
X107470371Y-84311903D01*
X107308464Y-84209748D01*
X107303581Y-84206667D01*
X107115039Y-84131446D01*
X107109379Y-84130320D01*
X107109375Y-84130319D01*
X106921613Y-84092971D01*
X106921610Y-84092971D01*
X106915946Y-84091844D01*
X106910171Y-84091768D01*
X106910167Y-84091768D01*
X106808793Y-84090441D01*
X106712971Y-84089187D01*
X106707274Y-84090166D01*
X106707273Y-84090166D01*
X106518607Y-84122585D01*
X106512910Y-84123564D01*
X106322463Y-84193824D01*
X106148010Y-84297612D01*
X106143670Y-84301418D01*
X106143666Y-84301421D01*
X106029403Y-84401628D01*
X105995392Y-84431455D01*
X105869720Y-84590869D01*
X105867031Y-84595980D01*
X105867029Y-84595983D01*
X105854073Y-84620609D01*
X105775203Y-84770515D01*
X105715007Y-84964378D01*
X105691148Y-85165964D01*
X105704424Y-85368522D01*
X105705845Y-85374118D01*
X105705846Y-85374123D01*
X105708592Y-85384934D01*
X105754392Y-85565269D01*
X105756809Y-85570512D01*
X105791803Y-85646419D01*
X105839377Y-85749616D01*
X105842710Y-85754332D01*
X105949375Y-85905260D01*
X105956533Y-85915389D01*
X105960675Y-85919424D01*
X106006874Y-85964429D01*
X106101938Y-86057035D01*
X106270720Y-86169812D01*
X106276023Y-86172090D01*
X106276026Y-86172092D01*
X106393690Y-86222644D01*
X106457228Y-86249942D01*
X106520531Y-86264266D01*
X106649579Y-86293467D01*
X106649584Y-86293468D01*
X106655216Y-86294742D01*
X106660987Y-86294969D01*
X106660989Y-86294969D01*
X106720756Y-86297317D01*
X106858053Y-86302712D01*
X106981197Y-86284857D01*
X107053231Y-86274413D01*
X107053236Y-86274412D01*
X107058945Y-86273584D01*
X107064409Y-86271729D01*
X107064414Y-86271728D01*
X107245693Y-86210192D01*
X107245698Y-86210190D01*
X107251165Y-86208334D01*
X107314266Y-86172996D01*
X107347257Y-86154520D01*
X107428276Y-86109147D01*
X107441914Y-86097805D01*
X107579913Y-85983031D01*
X107584345Y-85979345D01*
X107611218Y-85947034D01*
X107710453Y-85827718D01*
X107710455Y-85827715D01*
X107714147Y-85823276D01*
X107813334Y-85646165D01*
X107813787Y-85646419D01*
X107857368Y-85595151D01*
X107926488Y-85574500D01*
X108607616Y-85574500D01*
X108675737Y-85594502D01*
X108696711Y-85611405D01*
X108900522Y-85815216D01*
X108915664Y-85833964D01*
X108916779Y-85835189D01*
X108922429Y-85843940D01*
X108930607Y-85850387D01*
X108930609Y-85850389D01*
X108948800Y-85864729D01*
X108953244Y-85868678D01*
X108953306Y-85868604D01*
X108957263Y-85871957D01*
X108960944Y-85875638D01*
X108976654Y-85886865D01*
X108981380Y-85890413D01*
X109021647Y-85922156D01*
X109030284Y-85925189D01*
X109037734Y-85930513D01*
X109047710Y-85933497D01*
X109047711Y-85933497D01*
X109059531Y-85937032D01*
X109086849Y-85945202D01*
X109092486Y-85947034D01*
X109133367Y-85961390D01*
X109140851Y-85964018D01*
X109146416Y-85964500D01*
X109149124Y-85964500D01*
X109151758Y-85964614D01*
X109151856Y-85964643D01*
X109151849Y-85964807D01*
X109152553Y-85964851D01*
X109158778Y-85966713D01*
X109212635Y-85964597D01*
X109217582Y-85964500D01*
X111424746Y-85964500D01*
X111494748Y-85985735D01*
X111515699Y-85999734D01*
X111589933Y-86014500D01*
X111602014Y-86014500D01*
X111670135Y-86034502D01*
X111716628Y-86088158D01*
X111726732Y-86158432D01*
X111722731Y-86176601D01*
X111709799Y-86219844D01*
X111707964Y-86225492D01*
X111696394Y-86258440D01*
X111690982Y-86273851D01*
X111690500Y-86279416D01*
X111690500Y-86282124D01*
X111690386Y-86284758D01*
X111690357Y-86284856D01*
X111690193Y-86284849D01*
X111690149Y-86285553D01*
X111688287Y-86291778D01*
X111688696Y-86302183D01*
X111690403Y-86345635D01*
X111690500Y-86350582D01*
X111690500Y-86369404D01*
X111670498Y-86437525D01*
X111653595Y-86458499D01*
X111606865Y-86505229D01*
X111550132Y-86616573D01*
X111535500Y-86708955D01*
X111535501Y-87111044D01*
X111550132Y-87203427D01*
X111606865Y-87314771D01*
X111695229Y-87403135D01*
X111806573Y-87459868D01*
X111816363Y-87461419D01*
X111816364Y-87461419D01*
X111838230Y-87464882D01*
X111898955Y-87474500D01*
X112069965Y-87474500D01*
X112241044Y-87474499D01*
X112270525Y-87469830D01*
X112323629Y-87461420D01*
X112323631Y-87461419D01*
X112333427Y-87459868D01*
X112444771Y-87403135D01*
X112533135Y-87314771D01*
X112589868Y-87203427D01*
X112604500Y-87111045D01*
X112604499Y-86708956D01*
X112592287Y-86631844D01*
X112591420Y-86626371D01*
X112591419Y-86626369D01*
X112589868Y-86616573D01*
X112545167Y-86528843D01*
X112532063Y-86459066D01*
X112558763Y-86393282D01*
X112567992Y-86383411D01*
X112573940Y-86379571D01*
X112580387Y-86371393D01*
X112580389Y-86371391D01*
X112594729Y-86353200D01*
X112598678Y-86348756D01*
X112598604Y-86348694D01*
X112601957Y-86344737D01*
X112605638Y-86341056D01*
X112616865Y-86325346D01*
X112620421Y-86320609D01*
X112640002Y-86295771D01*
X112652156Y-86280353D01*
X112655189Y-86271716D01*
X112660513Y-86264266D01*
X112675202Y-86215151D01*
X112677034Y-86209514D01*
X112691390Y-86168633D01*
X112691390Y-86168632D01*
X112694018Y-86161149D01*
X112694500Y-86155584D01*
X112694500Y-86152876D01*
X112694614Y-86150242D01*
X112694643Y-86150144D01*
X112694807Y-86150151D01*
X112694851Y-86149447D01*
X112696713Y-86143222D01*
X112694597Y-86089365D01*
X112694500Y-86084418D01*
X112694500Y-85975254D01*
X112715730Y-85905260D01*
X112718582Y-85900991D01*
X112773055Y-85855459D01*
X112843498Y-85846606D01*
X112907544Y-85877242D01*
X112928118Y-85900984D01*
X112932725Y-85907879D01*
X112953086Y-85963070D01*
X112956806Y-85994500D01*
X112958030Y-86004841D01*
X112961993Y-86013093D01*
X112963496Y-86022126D01*
X112968443Y-86031295D01*
X112968444Y-86031297D01*
X112987834Y-86067232D01*
X112990531Y-86072525D01*
X113009285Y-86111582D01*
X113009288Y-86111586D01*
X113012719Y-86118732D01*
X113016314Y-86123008D01*
X113018237Y-86124931D01*
X113020009Y-86126863D01*
X113020052Y-86126942D01*
X113019928Y-86127055D01*
X113020404Y-86127595D01*
X113023490Y-86133314D01*
X113031135Y-86140381D01*
X113063086Y-86169916D01*
X113066652Y-86173346D01*
X113218115Y-86324809D01*
X113252141Y-86387121D01*
X113255020Y-86413904D01*
X113255020Y-87266096D01*
X113235018Y-87334217D01*
X113218115Y-87355191D01*
X112064311Y-88508995D01*
X112001999Y-88543021D01*
X111975216Y-88545900D01*
X108199785Y-88545900D01*
X108131664Y-88525898D01*
X108110690Y-88508995D01*
X107862281Y-88260586D01*
X107828255Y-88198274D01*
X107832063Y-88130992D01*
X107878584Y-87993945D01*
X107879412Y-87988236D01*
X107879413Y-87988231D01*
X107907179Y-87796727D01*
X107907712Y-87793053D01*
X107909232Y-87735000D01*
X107896164Y-87592776D01*
X107891187Y-87538613D01*
X107891186Y-87538610D01*
X107890658Y-87532859D01*
X107889090Y-87527299D01*
X107837125Y-87343046D01*
X107837124Y-87343044D01*
X107835557Y-87337487D01*
X107827813Y-87321782D01*
X107748331Y-87160609D01*
X107745776Y-87155428D01*
X107624320Y-86992779D01*
X107475258Y-86854987D01*
X107470375Y-86851906D01*
X107470371Y-86851903D01*
X107308464Y-86749748D01*
X107303581Y-86746667D01*
X107115039Y-86671446D01*
X107109379Y-86670320D01*
X107109375Y-86670319D01*
X106921613Y-86632971D01*
X106921610Y-86632971D01*
X106915946Y-86631844D01*
X106910171Y-86631768D01*
X106910167Y-86631768D01*
X106808793Y-86630441D01*
X106712971Y-86629187D01*
X106707274Y-86630166D01*
X106707273Y-86630166D01*
X106518607Y-86662585D01*
X106512910Y-86663564D01*
X106322463Y-86733824D01*
X106148010Y-86837612D01*
X106143670Y-86841418D01*
X106143666Y-86841421D01*
X106123723Y-86858911D01*
X105995392Y-86971455D01*
X105869720Y-87130869D01*
X105867031Y-87135980D01*
X105867029Y-87135983D01*
X105854073Y-87160609D01*
X105775203Y-87310515D01*
X105715007Y-87504378D01*
X105691148Y-87705964D01*
X100838500Y-87705964D01*
X100838500Y-80085964D01*
X105691148Y-80085964D01*
X105704424Y-80288522D01*
X105705845Y-80294118D01*
X105705846Y-80294123D01*
X105726119Y-80373945D01*
X105754392Y-80485269D01*
X105756809Y-80490512D01*
X105794010Y-80571208D01*
X105839377Y-80669616D01*
X105956533Y-80835389D01*
X106101938Y-80977035D01*
X106270720Y-81089812D01*
X106276023Y-81092090D01*
X106276026Y-81092092D01*
X106364707Y-81130192D01*
X106457228Y-81169942D01*
X106530244Y-81186464D01*
X106649579Y-81213467D01*
X106649584Y-81213468D01*
X106655216Y-81214742D01*
X106660987Y-81214969D01*
X106660989Y-81214969D01*
X106720756Y-81217317D01*
X106858053Y-81222712D01*
X106958499Y-81208148D01*
X107053231Y-81194413D01*
X107053236Y-81194412D01*
X107058945Y-81193584D01*
X107064409Y-81191729D01*
X107064414Y-81191728D01*
X107245693Y-81130192D01*
X107245698Y-81130190D01*
X107251165Y-81128334D01*
X107428276Y-81029147D01*
X107490934Y-80977035D01*
X107579913Y-80903031D01*
X107584345Y-80899345D01*
X107714147Y-80743276D01*
X107813334Y-80566165D01*
X107815190Y-80560698D01*
X107815192Y-80560693D01*
X107876728Y-80379414D01*
X107876729Y-80379409D01*
X107878584Y-80373945D01*
X107879412Y-80368236D01*
X107879413Y-80368231D01*
X107907179Y-80176727D01*
X107907712Y-80173053D01*
X107909232Y-80115000D01*
X107890658Y-79912859D01*
X107889090Y-79907299D01*
X107837125Y-79723046D01*
X107837124Y-79723044D01*
X107835557Y-79717487D01*
X107824978Y-79696033D01*
X107748331Y-79540609D01*
X107745776Y-79535428D01*
X107624320Y-79372779D01*
X107475258Y-79234987D01*
X107470375Y-79231906D01*
X107470371Y-79231903D01*
X107308464Y-79129748D01*
X107303581Y-79126667D01*
X107115039Y-79051446D01*
X107109379Y-79050320D01*
X107109375Y-79050319D01*
X106921613Y-79012971D01*
X106921610Y-79012971D01*
X106915946Y-79011844D01*
X106910171Y-79011768D01*
X106910167Y-79011768D01*
X106808793Y-79010441D01*
X106712971Y-79009187D01*
X106707274Y-79010166D01*
X106707273Y-79010166D01*
X106518607Y-79042585D01*
X106512910Y-79043564D01*
X106322463Y-79113824D01*
X106148010Y-79217612D01*
X106143670Y-79221418D01*
X106143666Y-79221421D01*
X106123723Y-79238911D01*
X105995392Y-79351455D01*
X105869720Y-79510869D01*
X105867031Y-79515980D01*
X105867029Y-79515983D01*
X105854073Y-79540609D01*
X105775203Y-79690515D01*
X105715007Y-79884378D01*
X105691148Y-80085964D01*
X100838500Y-80085964D01*
X100838500Y-75818500D01*
X100858502Y-75750379D01*
X100912158Y-75703886D01*
X100964500Y-75692500D01*
X116459500Y-75692500D01*
X116527621Y-75712502D01*
G37*
%TD.AperFunction*%
%TA.AperFunction,Conductor*%
G36*
X112589579Y-84509457D02*
G01*
X112614933Y-84514500D01*
X112627599Y-84514500D01*
X112759501Y-84514499D01*
X112827620Y-84534501D01*
X112874113Y-84588156D01*
X112885500Y-84640498D01*
X112885501Y-84745228D01*
X112885501Y-84785066D01*
X112891493Y-84815193D01*
X112897435Y-84845065D01*
X112900266Y-84859301D01*
X112907161Y-84869621D01*
X112907162Y-84869622D01*
X112937664Y-84915271D01*
X112956516Y-84943484D01*
X113011519Y-84980236D01*
X113057045Y-85034713D01*
X113065892Y-85105156D01*
X113035251Y-85169200D01*
X113011521Y-85189762D01*
X112956516Y-85226516D01*
X112919764Y-85281519D01*
X112865287Y-85327045D01*
X112794844Y-85335892D01*
X112730800Y-85305251D01*
X112710238Y-85281521D01*
X112673484Y-85226516D01*
X112589301Y-85170266D01*
X112515067Y-85155500D01*
X112502403Y-85155500D01*
X112370499Y-85155501D01*
X112302380Y-85135499D01*
X112255887Y-85081844D01*
X112244500Y-85029502D01*
X112244499Y-84891127D01*
X112244499Y-84884934D01*
X112239456Y-84859578D01*
X112239457Y-84810419D01*
X112242030Y-84797487D01*
X112244500Y-84785067D01*
X112244499Y-84640499D01*
X112264501Y-84572380D01*
X112318156Y-84525887D01*
X112370498Y-84514500D01*
X112502390Y-84514499D01*
X112515066Y-84514499D01*
X112521133Y-84513292D01*
X112521137Y-84513292D01*
X112540422Y-84509456D01*
X112589579Y-84509457D01*
G37*
%TD.AperFunction*%
%TD*%
M02*
